<svg xmlns="http://www.w3.org/2000/svg" width="25" height="22" viewBox="0 0 25 22">
  <defs>
    <style>
      .cls-1 {
        fill: #007078;
        fill-rule: evenodd;
      }
    </style>
  </defs>
  <path class="cls-1" d="M22.98,2.042a6.917,6.917,0,0,0-9.789.005l-0.684.684-0.694-.695a6.918,6.918,0,1,0-9.778,9.788l9.953,9.963a0.71,0.71,0,0,0,1.007,0l9.974-9.947A6.946,6.946,0,0,0,22.98,2.042Zm-1.018,8.79-9.471,9.443-9.45-9.459A5.489,5.489,0,1,1,10.8,3.051l1.2,1.2a0.713,0.713,0,0,0,1.012,0L14.2,3.061A5.493,5.493,0,0,1,21.963,10.833Z"/>
</svg>
