<svg xmlns="http://www.w3.org/2000/svg" width="30" height="22" viewBox="0 0 30 22">
  <defs>
    <style>
      .cls-1 {
        fill: #ccd500;
        fill-rule: evenodd;
      }
    </style>
  </defs>
  <path id="Rounded_Rectangle_2" data-name="Rounded Rectangle 2" class="cls-1" d="M29.389,8.889a1,1,0,0,1-1.414,0L23,3.914V21a1,1,0,1,1-2,0V3.914L16.025,8.889a1,1,0,1,1-1.414-1.414l6.364-6.364A0.993,0.993,0,0,1,22,.881a0.981,0.981,0,0,1,1.021.23l6.364,6.364A1,1,0,0,1,29.389,8.889Zm-14,4.222a1,1,0,0,1,0,1.414L9.025,20.889A0.981,0.981,0,0,1,8,21.119a0.994,0.994,0,0,1-1.029-.23L0.611,14.525a1,1,0,0,1,1.414-1.414L7,18.086V1A1,1,0,1,1,9,1V18.086l4.975-4.975A1,1,0,0,1,15.389,13.111Z"/>
</svg>
