<svg xmlns="http://www.w3.org/2000/svg" width="6" height="166" viewBox="0 0 6 166">
  <defs>
    <style>
      .cls-1 {
        fill: #e3e3e3;
        fill-rule: evenodd;
      }
    </style>
  </defs>
  <path id="Ellipse_10_copy" data-name="Ellipse 10 copy" class="cls-1" d="M941,993a3,3,0,1,1-3,3A3,3,0,0,1,941,993Zm0-20a3,3,0,1,1-3,3A3,3,0,0,1,941,973Zm0-20a3,3,0,1,1-3,3A3,3,0,0,1,941,953Zm0-20a3,3,0,1,1-3,3A3,3,0,0,1,941,933Zm0-20a3,3,0,1,1-3,3A3,3,0,0,1,941,913Zm0-20a3,3,0,1,1-3,3A3,3,0,0,1,941,893Zm0-20a3,3,0,1,1-3,3A3,3,0,0,1,941,873Zm0-20a3,3,0,1,1-3,3A3,3,0,0,1,941,853Zm0-20a3,3,0,1,1-3,3A3,3,0,0,1,941,833Z" transform="translate(-938 -833)"/>
</svg>
