<svg xmlns="http://www.w3.org/2000/svg" width="166" height="6" viewBox="0 0 166 6">
  <defs>
    <style>
      .cls-1 {
        fill: #e3e3e3;
        fill-rule: evenodd;
      }
    </style>
  </defs>
  <path class="cls-1" d="M583,940a3,3,0,1,1-3,3A3,3,0,0,1,583,940Zm20,0a3,3,0,1,1-3,3A3,3,0,0,1,603,940Zm20,0a3,3,0,1,1-3,3A3,3,0,0,1,623,940Zm20,0a3,3,0,1,1-3,3A3,3,0,0,1,643,940Zm20,0a3,3,0,1,1-3,3A3,3,0,0,1,663,940Zm20,0a3,3,0,1,1-3,3A3,3,0,0,1,683,940Zm20,0a3,3,0,1,1-3,3A3,3,0,0,1,703,940Zm20,0a3,3,0,1,1-3,3A3,3,0,0,1,723,940Zm20,0a3,3,0,1,1-3,3A3,3,0,0,1,743,940Z" transform="translate(-580 -940)"/>
</svg>
