<svg 
 xmlns="http://www.w3.org/2000/svg"
 xmlns:xlink="http://www.w3.org/1999/xlink"
 width="1287px" height="1128px">
<path fill-rule="evenodd"  opacity="0.149" fill="rgb(216, 216, 216)"
 d="M1263.623,569.926 C1178.630,568.242 1087.385,574.496 1002.250,583.855 C979.198,689.350 937.086,776.085 875.865,843.998 C811.757,915.102 711.790,954.181 575.954,961.162 C553.692,961.980 530.389,960.035 507.082,955.705 C490.873,1042.814 486.215,1106.740 486.215,1106.740 C475.468,1124.631 459.342,1148.825 445.959,1095.089 C435.036,1054.507 428.693,995.892 425.559,930.631 C407.058,922.542 389.436,913.034 373.325,902.307 C315.520,863.836 267.633,833.351 205.214,708.548 C200.407,697.410 196.141,686.155 192.399,674.813 C98.161,701.859 32.653,732.053 32.653,732.053 C9.447,729.785 -22.770,725.238 23.740,690.528 C58.330,663.663 112.985,633.440 175.848,603.339 C155.444,455.439 217.398,302.633 339.708,202.757 C375.326,205.347 406.501,212.222 433.253,223.417 C490.002,173.942 564.246,128.789 676.457,122.261 C726.761,59.398 764.152,17.584 764.152,17.584 C776.935,1.292 805.785,-14.213 804.408,29.233 C788.642,61.566 774.780,94.910 762.591,128.255 C847.483,145.098 928.606,194.444 979.065,277.572 C1007.178,335.453 1019.794,400.920 1016.945,473.931 C1150.590,500.042 1254.710,528.399 1254.710,528.399 C1277.378,533.198 1307.436,552.965 1263.623,569.926 ZM575.415,915.734 C622.464,914.003 680.688,878.363 734.745,810.362 C778.867,754.814 810.394,690.963 830.680,607.388 C729.884,623.766 660.747,639.275 660.747,639.275 C631.827,644.322 619.331,647.606 605.087,650.339 C562.601,730.163 534.704,825.328 516.691,908.052 C540.026,914.690 560.499,915.415 575.415,915.734 ZM375.003,775.927 C390.478,805.507 406.769,828.790 423.222,847.130 C422.458,773.575 424.713,697.794 428.325,633.676 C394.178,635.142 360.217,638.954 327.357,644.265 C336.977,689.109 352.871,733.634 375.003,775.927 ZM423.932,272.749 C352.086,339.137 316.568,437.022 316.363,541.295 C358.985,523.756 401.567,507.206 441.264,492.484 C441.743,489.607 442.234,486.135 442.713,483.819 C485.885,379.675 571.859,256.896 644.036,163.481 C589.077,166.287 524.178,180.111 423.932,272.749 ZM838.353,294.234 C823.826,253.940 792.805,201.909 745.926,176.942 C714.591,274.806 697.012,368.370 687.608,431.515 C740.292,433.170 797.313,438.807 854.198,446.587 C857.684,382.630 851.960,332.027 838.353,294.234 Z"/>
</svg>