<svg xmlns="http://www.w3.org/2000/svg" width="46" height="40" viewBox="0 0 46 40">
  <defs>
    <style>
      .cls-1 {
        fill: #0e7077;
        fill-rule: evenodd;
      }
    </style>
  </defs>
  <path class="cls-1" d="M702.694,659.286a4.3,4.3,0,1,0,4.359,4.3A4.334,4.334,0,0,0,702.694,659.286Zm0,7.261a2.964,2.964,0,1,1,3.007-2.964A2.989,2.989,0,0,1,702.694,666.547Zm0-10.547a0.671,0.671,0,0,0-.676.666v1.341a0.676,0.676,0,0,0,1.352,0v-1.341A0.671,0.671,0,0,0,702.694,656Zm5.44,2.221a0.683,0.683,0,0,0-.956,0l-0.962.948a0.659,0.659,0,0,0,0,.942,0.685,0.685,0,0,0,.957,0l0.961-.948A0.659,0.659,0,0,0,708.134,658.221Zm1.577,4.7h-1.359a0.666,0.666,0,1,0,0,1.332h1.359A0.666,0.666,0,1,0,709.711,662.917ZM708.134,668l-0.961-.947a0.683,0.683,0,0,0-.957,0,0.659,0.659,0,0,0,0,.942l0.962,0.948a0.683,0.683,0,0,0,.956,0A0.66,0.66,0,0,0,708.134,668Zm-5.44.491a0.671,0.671,0,0,0-.676.666v1.34a0.676,0.676,0,0,0,1.352,0v-1.34A0.671,0.671,0,0,0,702.694,668.493Zm-3.523-1.438a0.681,0.681,0,0,0-.956,0l-0.961.947a0.66,0.66,0,0,0,0,.943,0.685,0.685,0,0,0,.957,0l0.961-.948A0.659,0.659,0,0,0,699.171,667.055Zm-2.135-4.138h-1.36a0.666,0.666,0,1,0,0,1.332h1.36A0.666,0.666,0,1,0,697.036,662.917Zm2.135-3.748-0.961-.948a0.685,0.685,0,0,0-.957,0,0.659,0.659,0,0,0,0,.942l0.962,0.948a0.683,0.683,0,0,0,.956,0A0.659,0.659,0,0,0,699.171,659.169Zm41.5,34.644a6.39,6.39,0,0,0-3.894-1.073c-1.245-1.69-3.6-3.139-6.831-4.208a34.218,34.218,0,0,0-6.635-1.425l4.844-11.978a8.48,8.48,0,0,1,1.89,1.837,0.7,0.7,0,0,0,.732.292,9.068,9.068,0,0,1,4.907.53,8.928,8.928,0,0,1,3.954,2.971,0.68,0.68,0,0,0,.547.275,0.7,0.7,0,0,0,.163-0.02,0.67,0.67,0,0,0,.506-0.552,22.605,22.605,0,0,0-.783-8.94,0.679,0.679,0,0,0-.842-0.447,0.664,0.664,0,0,0-.453.83,21.6,21.6,0,0,1,.853,6.82,10.849,10.849,0,0,0-8.012-2.91c0.012-.035.022-0.068,0.033-0.1a24.461,24.461,0,0,0,1.116-4.894,18.882,18.882,0,0,0,0-4.582,14.3,14.3,0,0,0-.58-2.6l-0.006-.018a12.992,12.992,0,0,1,5.557,5.692,0.68,0.68,0,0,0,.907.3,0.662,0.662,0,0,0,.3-0.895,14.428,14.428,0,0,0-7.826-7.051c-4.836-1.9-9.869-1.275-14.555,1.807a23.174,23.174,0,0,0-5.631,5.24,0.659,0.659,0,0,0-.018.744,0.678,0.678,0,0,0,.693.3,9.065,9.065,0,0,1,4.944.524,8.942,8.942,0,0,1,3.912,2.914,0.707,0.707,0,0,0,.779.309,8.706,8.706,0,0,1,2.63-.049l-5.4,13.358c-0.136,0-.272,0-0.408,0a41.5,41.5,0,0,0-8.852.91,0.666,0.666,0,0,0-.513.795,0.676,0.676,0,0,0,.807.506,40.735,40.735,0,0,1,8.558-.878c1.41,0,2.821.066,4.224,0.2H722.3a33.589,33.589,0,0,1,7.214,1.459,13.984,13.984,0,0,1,5.735,3.214,6.412,6.412,0,0,0-1.69.8,5.017,5.017,0,0,1-5.592,0,6.376,6.376,0,0,0-7.11,0,5.017,5.017,0,0,1-5.592,0,6.376,6.376,0,0,0-7.11,0,5.017,5.017,0,0,1-5.592,0,6.433,6.433,0,0,0-1.691-.8A13.974,13.974,0,0,1,706.6,689.8a0.665,0.665,0,0,0,.426-0.844,0.679,0.679,0,0,0-.856-0.419c-3.231,1.067-5.577,2.516-6.82,4.2a6.38,6.38,0,0,0-3.894,1.073,0.659,0.659,0,0,0-.18.925,0.682,0.682,0,0,0,.939.178,5.017,5.017,0,0,1,3.326-.823,0.647,0.647,0,0,0,.124.015,5.04,5.04,0,0,1,2.142.808,6.378,6.378,0,0,0,7.11,0,5.017,5.017,0,0,1,5.592,0,6.378,6.378,0,0,0,7.11,0,5.017,5.017,0,0,1,5.592,0,6.376,6.376,0,0,0,7.11,0,5.026,5.026,0,0,1,2.137-.807,0.744,0.744,0,0,0,.132-0.016,5.021,5.021,0,0,1,3.323.823,0.683,0.683,0,0,0,.939-0.178A0.661,0.661,0,0,0,740.672,693.813ZM722.161,672.05c0.008-.014.015-0.029,0.022-0.044a23.867,23.867,0,0,1,2.222-3.723,0.673,0.673,0,0,0-.152-0.931,0.7,0.7,0,0,0-.944.15,24.835,24.835,0,0,0-1.848,2.951c-0.2.369-.4,0.743-0.569,1.126l-0.009.019a10.489,10.489,0,0,0-3.829-2.564,10.728,10.728,0,0,0-4.02-.756,22.728,22.728,0,0,1,4.316-3.724,15.957,15.957,0,0,1,5.871-2.431,13.169,13.169,0,0,1,5.772.242l-0.023.013a14.917,14.917,0,0,0-2.876,2.042c-0.341.307-.674,0.623-0.993,0.952a0.66,0.66,0,0,0,.023.942,0.683,0.683,0,0,0,.956-0.023,15.344,15.344,0,0,1,2.913-2.377,10.862,10.862,0,0,1,1.543-.8,10.3,10.3,0,0,1,.5,1.393,17.579,17.579,0,0,1-.12,8.908q-0.231.933-.533,1.846l-0.006.019a10.429,10.429,0,0,0-3.329-2.306l-0.052-.023A10.733,10.733,0,0,0,722.161,672.05Zm-0.247,14.913c-0.313-.027-0.629-0.049-0.946-0.07q-0.527-.034-1.054-0.055l5.3-13.112a9.751,9.751,0,0,1,.946.322c0.05,0.02.825,0.37,0.823,0.373Z" transform="translate(-695 -656)"/>
</svg>
