<svg xmlns="http://www.w3.org/2000/svg" width="21" height="24" viewBox="0 0 21 24">
  <defs>
    <style>
      .cls-1 {
        fill: #007078;
        fill-rule: evenodd;
      }
    </style>
  </defs>
  <path class="cls-1" d="M20.345,3.454H15.432V2.64A2.622,2.622,0,0,0,12.835,0H8.165a2.622,2.622,0,0,0-2.6,2.64V3.454H0.655a0.666,0.666,0,0,0,0,1.332H1.84V20.438A3.539,3.539,0,0,0,5.345,24H15.655a3.539,3.539,0,0,0,3.5-3.562V4.786h1.184A0.666,0.666,0,0,0,20.345,3.454ZM6.879,2.64A1.3,1.3,0,0,1,8.165,1.332h4.67A1.3,1.3,0,0,1,14.121,2.64V3.454H6.879V2.64Zm10.971,17.8a2.217,2.217,0,0,1-2.194,2.23H5.345a2.216,2.216,0,0,1-2.194-2.23V4.786h14.7V20.438h0ZM10.5,20.28a0.658,0.658,0,0,0,.655-0.666V7.84a0.655,0.655,0,1,0-1.311,0V19.609A0.662,0.662,0,0,0,10.5,20.28Zm-4.277-.735a0.658,0.658,0,0,0,.655-0.666V8.571a0.655,0.655,0,1,0-1.311,0V18.878A0.661,0.661,0,0,0,6.223,19.544Zm8.553,0a0.658,0.658,0,0,0,.655-0.666V8.571a0.655,0.655,0,1,0-1.311,0V18.878A0.658,0.658,0,0,0,14.777,19.544Z"/>
</svg>
