<svg xmlns="http://www.w3.org/2000/svg" width="81" height="78" viewBox="0 0 81 78">
  <defs>
    <style>
      .cls-1 {
        fill: #007078;
        fill-rule: evenodd;
      }
    </style>
  </defs>
  <path id="Forma_1_copy_3" data-name="Forma 1 copy 3" class="cls-1" d="M80.981,26.246v16.3a8.606,8.606,0,0,1,.008,1.02,8.52,8.52,0,0,1-8.935,8.091H53.987v7.249a1.944,1.944,0,0,1-.7,1.516,1.921,1.921,0,0,1-2.715-.256l-1.6-1.938V68.308c0,4.671-2.526,9.692-9.641,9.692H9.64C2.545,78,0,73,0,68.308V9.692C0,3.625,3.605,0,9.64,0h29.6c7.115,0,9.641,5,9.641,9.692v7.463H72.015A8.507,8.507,0,0,1,80.981,26.246ZM3.856,69.679A5.153,5.153,0,0,0,9.64,74.123H39.3a5.109,5.109,0,0,0,1.363,0,5.171,5.171,0,0,0,4.421-5.815V64.761H3.856v3.547A5.191,5.191,0,0,0,3.856,69.679ZM31.583,42.625v-16.3a8.545,8.545,0,0,1,9.062-9.091h4.435V15.74H3.856V60.884H45.079l0.019-7.23L43.46,51.716H40.645a8.426,8.426,0,0,1-1.137,0A8.533,8.533,0,0,1,31.583,42.625Zm13.535-34.3a5.153,5.153,0,0,0-5.784-4.445H9.64c-5.784,0-5.784,4.381-5.784,5.815v2.171H45.118V9.692A5.2,5.2,0,0,0,45.118,8.321Zm32.015,16.9a4.672,4.672,0,0,0-5.117-4.189H40.625a4.632,4.632,0,0,0-1.129,0,4.686,4.686,0,0,0-4.077,5.217v16.3a4.688,4.688,0,0,0,5.206,5.214h3.76a1.924,1.924,0,0,1,1.485.7l4.261,5.117V49.7a1.933,1.933,0,0,1,1.928-1.938h19.86a4.625,4.625,0,0,0,1.129,0,4.686,4.686,0,0,0,4.077-5.216v-16.3A4.714,4.714,0,0,0,77.133,25.22Zm-57.639,42h9.872a1.938,1.938,0,0,1,0,3.877H19.493A1.938,1.938,0,0,1,19.493,67.223Z"/>
</svg>
