<svg xmlns="http://www.w3.org/2000/svg" width="41" height="41" viewBox="0 0 41 41">
  <defs>
    <style>
      .cls-1 {
        fill: #0e7077;
        fill-rule: evenodd;
      }
    </style>
  </defs>
  <path id="Forma_1" data-name="Forma 1" class="cls-1" d="M169.736,687.3l-2.3,1.793,1.152,2.881a0.683,0.683,0,0,1-.38.888,0.65,0.65,0,0,1-.254.05,0.685,0.685,0,0,1-.635-0.429l-1.006-2.517-2.459,1.914v1.716a0.683,0.683,0,0,1-1.366,0v-1.558l-1.583-.528a0.684,0.684,0,0,1,.432-1.3l1.7,0.568,2.4-1.864-2.617-1.571a0.683,0.683,0,1,1,.7-1.172l3.071,1.843,2.308-1.8A0.683,0.683,0,0,1,169.736,687.3ZM149.5,692.907a15.7,15.7,0,0,1-3.008-.3,0.538,0.538,0,0,1-.069-0.007l-0.032-.008a15.741,15.741,0,0,1-1.9-.522c-0.154-.052-0.3-0.111-0.455-0.167a15.769,15.769,0,0,1-1.542-.669c-0.089-.045-0.181-0.084-0.27-0.131a15.637,15.637,0,0,1-1.718-1.049c-0.061-.043-0.118-0.09-0.178-0.133a15.94,15.94,0,0,1-1.418-1.158c-0.072-.066-0.146-0.13-0.217-0.2a15.761,15.761,0,0,1-1.394-1.5l-0.014-.019a15.791,15.791,0,0,1-1.109-1.574q-0.117-.186-0.228-0.376a15.493,15.493,0,0,1-.863-1.676c-0.014-.031-0.031-0.06-0.044-0.091a15.692,15.692,0,0,1-.645-1.859c-0.02-.071-0.053-0.137-0.072-0.208a0.7,0.7,0,0,1-.008-0.1,15.664,15.664,0,0,1-.531-3.982c0-.258.027-0.51,0.039-0.765a0.536,0.536,0,0,1-.015-0.078c0.005-.1.027-0.2,0.034-0.3,0.031-.421.081-0.835,0.144-1.245,0.028-.185.05-0.37,0.084-0.553a15.717,15.717,0,0,1,.378-1.554c0.017-.057.026-0.116,0.044-0.173a15.54,15.54,0,0,1,.6-1.589c0.093-.216.2-0.422,0.3-0.633,0.148-.3.3-0.6,0.466-0.89,0.135-.236.277-0.467,0.424-0.7,0.162-.253.334-0.5,0.51-0.74,0.165-.227.327-0.455,0.5-0.674,0.215-.266.448-0.516,0.681-0.767q0.4-.436.841-0.844c0.269-.25.54-0.5,0.826-0.728,0.193-.155.4-0.3,0.595-0.446,0.287-.209.579-0.41,0.88-0.6,0.114-.072.216-0.158,0.332-0.227a0.689,0.689,0,0,1,.107-0.04A15.557,15.557,0,0,1,156,662.892a0.67,0.67,0,0,1,.1.028c0.247,0.115.486,0.243,0.726,0.369,0.068,0.036.138,0.068,0.2,0.1,0.409,0.224.8,0.466,1.187,0.722,0.076,0.051.149,0.106,0.224,0.158q0.458,0.319.89,0.667c0.1,0.079.195,0.157,0.291,0.238q0.438,0.37.846,0.769c0.058,0.056.119,0.109,0.176,0.166,0.3,0.3.588,0.623,0.863,0.95,0.117,0.138.227,0.282,0.339,0.425,0.157,0.2.31,0.4,0.457,0.611,0.124,0.173.246,0.347,0.363,0.526,0.129,0.2.248,0.4,0.368,0.606,0.194,0.328.374,0.663,0.544,1,0.091,0.183.183,0.365,0.266,0.552,0.1,0.221.191,0.446,0.28,0.673,0.078,0.2.15,0.4,0.219,0.6s0.151,0.425.216,0.642q0.175,0.583.3,1.181c0.035,0.161.06,0.325,0.09,0.488,0.058,0.315.107,0.631,0.145,0.95,0.018,0.151.037,0.3,0.05,0.455,0.043,0.468.072,0.938,0.072,1.412h0A15.736,15.736,0,0,1,149.5,692.907Zm-13.648-11.3a14.267,14.267,0,0,0,.571,1.461c0.062,0.139.131,0.275,0.2,0.411q0.292,0.6.635,1.158c0.065,0.106.127,0.215,0.194,0.319a14.509,14.509,0,0,0,2.174,2.62c0.069,0.066.141,0.128,0.212,0.192a14.491,14.491,0,0,0,1.125.93c0.08,0.059.159,0.121,0.24,0.179a14.37,14.37,0,0,0,2.976,1.63c0.133,0.053.269,0.1,0.4,0.148q0.6,0.219,1.216.385l0.285,0.074,0.069-.242a3.3,3.3,0,0,0-.838-3.236l-0.414-.413a4.19,4.19,0,0,0-1.314-.89l-2.108-.9a3.672,3.672,0,0,1-2.226-3.378v-1.029a0.547,0.547,0,0,0-.238-0.454,0.541,0.541,0,0,0-.509-0.062l-2.685,1.006C135.828,681.543,135.842,681.573,135.852,681.605Zm6.131-14.928a3.126,3.126,0,0,0-.371-1.467c-0.032.022-.068,0.039-0.1,0.061-0.165.111-.316,0.235-0.475,0.352a14.352,14.352,0,0,0-1.491,1.249c-0.065.063-.137,0.121-0.2,0.186-0.236.236-.455,0.488-0.673,0.74-0.1.113-.2,0.221-0.294,0.336-0.2.24-.377,0.492-0.557,0.744-0.1.144-.208,0.287-0.305,0.435-0.158.24-.3,0.488-0.448,0.737-0.1.178-.2,0.357-0.3,0.54-0.122.234-.236,0.474-0.346,0.716q-0.144.321-.273,0.65t-0.251.685c-0.083.248-.156,0.5-0.225,0.755-0.06.216-.119,0.432-0.168,0.652-0.063.279-.11,0.562-0.156,0.846-0.024.148-.049,0.295-0.068,0.444l3.185-1.263a0.7,0.7,0,0,0,.4-0.873,2.058,2.058,0,0,1,.5-2.116l1.969-1.97a2.174,2.174,0,0,0,.643-1.55v-0.889Zm13.107-2.708a14.312,14.312,0,0,0-12.3.542,4.507,4.507,0,0,1,.564,2.166v0.889a3.53,3.53,0,0,1-1.043,2.517l-1.969,1.97a0.7,0.7,0,0,0-.17.718,2.071,2.071,0,0,1-1.193,2.575l-3.808,1.5c0,0.114-.017.225-0.017,0.34a14.347,14.347,0,0,0,.319,2.994l2.554-.958a1.92,1.92,0,0,1,2.594,1.8v1.029a2.3,2.3,0,0,0,1.4,2.121l2.107,0.9a5.544,5.544,0,0,1,1.742,1.179l0.414,0.414a4.664,4.664,0,0,1,1.186,4.578l-0.036.127a14.233,14.233,0,0,0,16.35-12.764l-0.328.246a2.082,2.082,0,0,1-3.033-.594l-0.371-.619-0.979,4.406c-0.012,2.2-.565,3.769-1.644,4.66a3.327,3.327,0,0,1-2.127.755,3,3,0,0,1-.386-0.024,1.574,1.574,0,0,1-1.11-.518c-0.871-.929-0.955-3.033-0.917-4.314a4.106,4.106,0,0,1-2.5-1.466,8.975,8.975,0,0,0-1.98-1.635,3.441,3.441,0,0,1-1.24-1.366l-0.788-1.576a2.5,2.5,0,0,1-.249-1.413,17.329,17.329,0,0,1,1.562-4.742,1.3,1.3,0,0,1,2.3-.114l0.679,1.131a0.484,0.484,0,0,0,.525.225,0.423,0.423,0,0,0,.353-0.365l0.011-.079a3.537,3.537,0,0,1,2.193-2.879l1.584-.634C156.012,667.2,155.541,665.137,155.09,663.969Zm8.726,12.54c-0.021-.422-0.055-0.842-0.112-1.257-0.021-.156-0.045-0.312-0.071-0.466-0.081-.469-0.181-0.932-0.307-1.387-0.02-.076-0.037-0.153-0.058-0.228a14.438,14.438,0,0,0-1.358-3.157c-0.046-.079-0.095-0.156-0.142-0.234q-0.369-.61-0.8-1.181c-0.067-.09-0.133-0.182-0.2-0.271a14.5,14.5,0,0,0-1.1-1.26h0a14.338,14.338,0,0,0-1.228-1.091c-0.131-.1-0.268-0.2-0.4-0.3q-0.471-.351-0.974-0.664-0.129-.081-0.261-0.159c0.337,1.38.5,3.251-.794,4.036a0.73,0.73,0,0,1-.1.05l-1.647.658a2.17,2.17,0,0,0-1.343,1.767l-0.014.108a1.787,1.787,0,0,1-1.433,1.518,1.843,1.843,0,0,1-1.972-.86l-0.619-1.032a16.169,16.169,0,0,0-1.394,4.216,1.134,1.134,0,0,0,.114.64l0.788,1.576a2.074,2.074,0,0,0,.747.822,10.074,10.074,0,0,1,2.3,1.919,2.687,2.687,0,0,0,2.049,1.019,0.789,0.789,0,0,1,.791.839c-0.117,1.818.1,3.4,0.524,3.859a0.3,0.3,0,0,0,.3.1,1.95,1.95,0,0,0,1.473-.444c0.739-.625,1.13-1.894,1.13-3.669a0.664,0.664,0,0,1,.016-0.148l1.137-5.119a1.106,1.106,0,0,1,2.027-.329l0.709,1.181a0.7,0.7,0,0,0,.475.334,0.712,0.712,0,0,0,.566-0.129l1.2-.9C163.831,676.741,163.821,676.626,163.816,676.509ZM149.5,657.367a19.747,19.747,0,0,0-1.979.1,0.548,0.548,0,0,1-.07,0,0.683,0.683,0,0,1-.069-1.363A20.76,20.76,0,0,1,149.5,656,0.684,0.684,0,0,1,149.5,657.367Zm-5.806.9a18.976,18.976,0,0,0-3.581,1.561,0.684,0.684,0,0,1-.672-1.191,20.41,20.41,0,0,1,3.839-1.673A0.684,0.684,0,0,1,143.694,658.264Zm-9.438,6.673a0.684,0.684,0,0,1-.544.27,0.671,0.671,0,0,1-.413-0.14,0.683,0.683,0,0,1-.131-0.957,20.738,20.738,0,0,1,2.857-3.059,0.684,0.684,0,1,1,.9,1.031A19.282,19.282,0,0,0,134.256,664.937Zm-3.345,7.014a0.684,0.684,0,0,1-.663.522,0.7,0.7,0,0,1-.163-0.019,0.684,0.684,0,0,1-.5-0.826,20.414,20.414,0,0,1,1.406-3.945,0.684,0.684,0,0,1,1.234.589A19.012,19.012,0,0,0,130.911,671.951Zm-0.532,3.87q-0.012.34-.012,0.683a19.408,19.408,0,0,0,.269,3.217,0.684,0.684,0,0,1-.56.788,0.752,0.752,0,0,1-.115.009,0.683,0.683,0,0,1-.673-0.569A20.748,20.748,0,0,1,129,676.5c0-.244,0-0.488.013-0.73A0.683,0.683,0,1,1,130.379,675.821Zm0.415,7.277a0.683,0.683,0,0,1,.885.387,19.138,19.138,0,0,0,1.791,3.472,0.683,0.683,0,1,1-1.144.747,20.524,20.524,0,0,1-1.919-3.72A0.683,0.683,0,0,1,130.794,683.1Zm5.134,6.9a19.332,19.332,0,0,0,3.021,2.478,0.683,0.683,0,1,1-.754,1.14,20.715,20.715,0,0,1-3.236-2.653A0.684,0.684,0,1,1,135.928,689.993Zm6.482,4.292a19.017,19.017,0,0,0,3.756,1.068,0.683,0.683,0,1,1-.237,1.345,20.287,20.287,0,0,1-4.026-1.144A0.683,0.683,0,1,1,142.41,694.285Zm7.653,1.349a19.138,19.138,0,0,0,3.874-.51,0.684,0.684,0,0,1,.316,1.331,20.553,20.553,0,0,1-4.15.544h-0.021A0.683,0.683,0,0,1,150.063,695.634Zm7.591-1.813a19.183,19.183,0,0,0,1.742-.936,0.684,0.684,0,0,1,.709,1.17,20.425,20.425,0,0,1-1.868,1,0.692,0.692,0,0,1-.292.065A0.684,0.684,0,0,1,157.654,693.821Z" transform="translate(-129 -656)"/>
</svg>
