<svg xmlns="http://www.w3.org/2000/svg" width="43" height="32" viewBox="0 0 43 32">
  <defs>
    <style>
      .cls-1 {
        fill: #ccd500;
        fill-rule: evenodd;
      }
    </style>
  </defs>
  <path class="cls-1" d="M41.92,14.467H37.715a1.072,1.072,0,1,1,0-2.143H41.92A1.072,1.072,0,1,1,41.92,14.467ZM41.692,9.1l-4.073,1.585a1.255,1.255,0,0,1-.4.07,1.08,1.08,0,0,1-1-.679A1.065,1.065,0,0,1,36.828,8.7L40.9,7.115a1.078,1.078,0,0,1,1.4.6A1.063,1.063,0,0,1,41.692,9.1Zm-4.073,6.986,4.073,1.585a1.058,1.058,0,0,1,.606,1.376,1.08,1.08,0,0,1-1,.679,1.045,1.045,0,0,1-.395-0.07l-4.074-1.586a1.063,1.063,0,0,1-.606-1.385A1.078,1.078,0,0,1,37.618,16.087Zm-6.1,1.951V25.72a1.07,1.07,0,0,1-1.931.627c-0.193-.253-4.46-5.731-14.889-5.731H12.581l4.126,9.912a1.068,1.068,0,0,1-.588,1.394,1.16,1.16,0,0,1-.413.078,1.074,1.074,0,0,1-.992-0.662l-4.46-10.722H6.145A6.128,6.128,0,0,1,0,14.519V12.255a6.128,6.128,0,0,1,6.145-6.1h8.56c2.994,0,7.418-.679,15.126-5.966a1.092,1.092,0,0,1,1.115-.07,1.046,1.046,0,0,1,.579.941V8.753A4.757,4.757,0,0,1,31.517,18.038ZM9.9,8.291H6.145a3.982,3.982,0,0,0-3.994,3.963v2.265a3.982,3.982,0,0,0,3.994,3.963H9.9V8.291ZM29.375,3.065c-7.2,4.6-11.606,5.226-14.679,5.226H12.045v10.19H14.7c7.6,0,12.291,2.718,14.679,4.669V3.065Zm2.151,7.926v4.8A2.618,2.618,0,0,0,31.526,10.991Z"/>
</svg>
