<svg xmlns="http://www.w3.org/2000/svg" width="37" height="37" viewBox="0 0 37 37">
  <defs>
    <style>
      .cls-1 {
        fill: #0e7077;
        fill-rule: evenodd;
      }
    </style>
  </defs>
  <path id="Forma_1" data-name="Forma 1" class="cls-1" d="M541.5,696a18.491,18.491,0,0,1-16.739-26.367A9.312,9.312,0,0,1,523,665.207,6.276,6.276,0,0,1,529.329,659a6.37,6.37,0,0,1,4.373,1.731A18.5,18.5,0,1,1,541.5,696Zm-12.171-35.539a4.807,4.807,0,0,0-4.868,4.746c0,2.621,4.868,7.912,4.868,7.912s4.868-5.291,4.868-7.912A4.808,4.808,0,0,0,529.329,660.461Zm5.344,1.435a6.077,6.077,0,0,1,.985,3.311c0,3.037-4.377,7.947-5.255,8.9l-1.074,1.168-1.075-1.168a37.971,37.971,0,0,1-2.519-3.06,17,17,0,0,0,.81,14.617,15.4,15.4,0,0,1,1.28-1.328l0.6-.537a2.784,2.784,0,0,0,.7-1.208l0.132-.632a0.709,0.709,0,0,0,.013-0.15,1.488,1.488,0,0,0-.092-0.489,1.117,1.117,0,0,0-.207-0.365l-0.662-.69h0a1.522,1.522,0,0,1-.44-1.055,1.44,1.44,0,0,1,.206-0.737,1.575,1.575,0,0,1,.553-0.541l1.182-.7a2.315,2.315,0,0,1,1.168-.3,2.34,2.34,0,0,1,1.256.344l1.18,0.759a1.043,1.043,0,0,0,.521.124,0.947,0.947,0,0,0,.42-0.085l1.442-.765a1.727,1.727,0,0,0,.709-0.925l0.224-.974,0.01-.04a1.862,1.862,0,0,0,.036-0.389,3.121,3.121,0,0,0-.051-0.551,1.954,1.954,0,0,0-.125-0.428l-0.824-1.794a1.708,1.708,0,0,1,.834-2.263l1.953-.9a1.247,1.247,0,0,0,.405-0.354,1.231,1.231,0,0,0,.242-0.481l0.289-1.571v0a1.15,1.15,0,0,0,.015-0.188,2.2,2.2,0,0,0-.085-0.566,1.533,1.533,0,0,0-.195-0.444l-1.111-1.559h0a2.329,2.329,0,0,1-.4-1.338,2.242,2.242,0,0,1,.264-1.086l0.4-.712A16.9,16.9,0,0,0,534.673,661.9Zm6.827-1.436c-0.444,0-.882.024-1.318,0.059l-0.922,1.656a0.817,0.817,0,0,0-.08.375,0.9,0.9,0,0,0,.128.489h0l1.111,1.56a2.924,2.924,0,0,1,.409.888,3.543,3.543,0,0,1,.142.968,2.51,2.51,0,0,1-.038.448v0l-0.288,1.57a2.84,2.84,0,0,1-1.471,1.9l-1.953.9a0.248,0.248,0,0,0-.142.226l0.021,0.1v0l0.825,1.8a3.274,3.274,0,0,1,.233.771,4.492,4.492,0,0,1,.076.817,3.262,3.262,0,0,1-.071.707l-0.235,1.024a3.145,3.145,0,0,1-1.448,1.887l-1.443.766a2.4,2.4,0,0,1-1.1.254,2.459,2.459,0,0,1-1.312-.356l-1.179-.76a0.927,0.927,0,0,0-.466-0.111,0.884,0.884,0,0,0-.422.094h0l-1.182.7-0.035.029,0.026,0.034h0l0.662,0.691a2.507,2.507,0,0,1,.524.873,2.931,2.931,0,0,1,.181.991,2.224,2.224,0,0,1-.042.437l0.006-.027-0.006.029s0,0,0,0l-0.133.639a4.173,4.173,0,0,1-1.151,2l-0.6.537a14,14,0,0,0-1.239,1.3l-0.213.263a17.118,17.118,0,0,0,8.587,6.618l0.765-2.631a0.526,0.526,0,0,0,.017-0.136,0.873,0.873,0,0,0-.083-0.356,0.637,0.637,0,0,0-.179-0.241l-0.947-.709a1.707,1.707,0,0,1-.34-2.386l2.588-3.451a1.8,1.8,0,0,1,1.444-.71,1.774,1.774,0,0,1,.938.265L541,683.781a1.96,1.96,0,0,1,.691.766,2.131,2.131,0,0,1,.243.977,1.851,1.851,0,0,1-.077.535l-0.379,1.265,0,0.006-0.007.044v0.007h0l0.054,0.011,2.129,0.164,0.046,0a1.455,1.455,0,0,0,.539-0.128,1.267,1.267,0,0,0,.43-0.284l1.115-1.253c-1.862-2.376-4.279-5.933-4.279-8.394a7.3,7.3,0,0,1,13.741-3.442l0.135-.024a2.861,2.861,0,0,1,.5-0.041,4.289,4.289,0,0,1,.927.108,3.347,3.347,0,0,1,.867.317l0.652,0.363A17.064,17.064,0,0,0,541.5,660.46Zm7.3,26.777s5.842-6.511,5.842-9.737a5.842,5.842,0,1,0-11.684,0C542.961,680.726,548.8,687.237,548.8,687.237Zm8.156-11.542a1.953,1.953,0,0,0-.482-0.17,2.791,2.791,0,0,0-.6-0.071l-0.065,0a7.267,7.267,0,0,1,.3,2.044c0,3.6-5.178,9.555-6.217,10.712l-1.086,1.211-1.087-1.211c-0.2-.224-0.561-0.631-1.006-1.166l-0.953,1.073a2.7,2.7,0,0,1-.944.654,2.881,2.881,0,0,1-1.117.247c-0.053,0-.105,0-0.159-0.006l-2.129-.164a1.536,1.536,0,0,1-1-.461,1.462,1.462,0,0,1-.4-1.015,1.6,1.6,0,0,1,.072-0.473l0.378-1.262a0.386,0.386,0,0,0,.015-0.115,0.687,0.687,0,0,0-.078-0.3,0.514,0.514,0,0,0-.17-0.2l-0.853-.534a0.317,0.317,0,0,0-.165-0.043,0.346,0.346,0,0,0-.274.125l-2.589,3.452a0.226,0.226,0,0,0-.047.143,0.24,0.24,0,0,0,.095.2l0.947,0.71a2.067,2.067,0,0,1,.629.8,2.321,2.321,0,0,1,.217.968,1.959,1.959,0,0,1-.074.541l-0.768,2.646a17.04,17.04,0,0,0,21.2-16.523c0-.316-0.01-0.63-0.028-0.942ZM540.074,686.9v0l0,0v0Zm8.729-12.809a2.921,2.921,0,1,1-2.921,2.921A2.921,2.921,0,0,1,548.8,674.092Zm0,4.382a1.461,1.461,0,1,0-1.461-1.461A1.463,1.463,0,0,0,548.8,678.474ZM538.162,675.7l0.007-.035-0.006.03v0Zm-8.357,1.539h0Zm-2.789-12.392a2.435,2.435,0,1,1,2.434,2.434A2.433,2.433,0,0,1,527.016,664.842Zm2.434,0.973a0.974,0.974,0,1,0-.973-0.973A0.974,0.974,0,0,0,529.45,665.815Z" transform="translate(-523 -659)"/>
</svg>
