<svg xmlns="http://www.w3.org/2000/svg" width="20" height="20" viewBox="0 0 20 20">
  <defs>
    <style>
      .cls-1 {
        fill: #ccd32c;
        fill-rule: evenodd;
      }
    </style>
  </defs>
  <path id="Forma_1" data-name="Forma 1" class="cls-1" d="M10,0A10,10,0,1,1,2.93,2.928,10,10,0,0,1,10,0h0Zm5.1,9.454a0.546,0.546,0,0,1,0,1.091H10a0.546,0.546,0,0,1-.469-0.276L9.52,10.261h0l-0.008-.015h0V10.238h0L9.5,10.223h0L9.5,10.207h0V10.2h0l-0.008-.015h0l-0.008-.008h0V10.161h0l-0.008-.015h0V10.138h0l-0.008-.016h0V10.107h0V10.091l-0.008-.008h0V10.068h0V10.052h0V10.039h0V10.031h0V10.016h0V10h0V3.49A0.535,0.535,0,0,1,10,2.952a0.541,0.541,0,0,1,.546.538V9.454h4.553ZM16.3,3.7A8.9,8.9,0,1,0,18.916,10,8.887,8.887,0,0,0,16.3,3.7h0Z"/>
</svg>
