<svg xmlns="http://www.w3.org/2000/svg" width="25" height="32" viewBox="0 0 25 32">
  <defs>
    <style>
      .cls-1 {
        fill: #282828;
        fill-rule: evenodd;
      }
    </style>
  </defs>
  <path id="Forma_1" data-name="Forma 1" class="cls-1" d="M0,32V0H17.242L25,7.779V32H0ZM17.553,1.821V7.467h5.631Zm6.383,6.713H16.489V1.067H1.064V30.933H23.936V8.533ZM5.851,7.467H11.17a0.533,0.533,0,0,1,0,1.067H5.851A0.533,0.533,0,0,1,5.851,7.467Zm0,4.267h13.3a0.533,0.533,0,0,1,0,1.067H5.851A0.533,0.533,0,0,1,5.851,11.734Zm0,4.266h13.3a0.533,0.533,0,0,1,0,1.067H5.851A0.533,0.533,0,0,1,5.851,16Zm0,4.267h13.3a0.533,0.533,0,0,1,0,1.067H5.851A0.533,0.533,0,0,1,5.851,20.267Zm0,4.267h13.3a0.533,0.533,0,0,1,0,1.067H5.851A0.533,0.533,0,0,1,5.851,24.533Z"/>
</svg>
