<svg xmlns="http://www.w3.org/2000/svg" width="67" height="76" viewBox="0 0 67 76">
  <defs>
    <style>
      .cls-1 {
        fill: #007078;
        fill-rule: evenodd;
      }
    </style>
  </defs>
  <path id="Forma_1_copy_2" data-name="Forma 1 copy 2" class="cls-1" d="M65.538,0h-53.1A12.453,12.453,0,0,0,0,12.438V63.592A12.453,12.453,0,0,0,12.438,76h53.1A1.462,1.462,0,0,0,67,74.539V1.462A1.462,1.462,0,0,0,65.538,0ZM2.923,12.409a9.529,9.529,0,0,1,8.053-9.4V51.242a12.41,12.41,0,0,0-8.053,4.385V12.409ZM64.077,58.257H18.124a1.462,1.462,0,1,0,0,2.923H64.077V64.4H18.124a1.462,1.462,0,1,0,0,2.923H64.077v5.846H12.438a9.515,9.515,0,1,1,0-19H64.076v4.092h0Zm-23.415-26.1a1.461,1.461,0,0,0-1.739,0,12.16,12.16,0,0,1-18.328-3.8L25.257,29.9c3.522,1.169,7.556-1.374,9-5.685a9.279,9.279,0,0,0,0-5.992,6.167,6.167,0,0,0-3.829-3.961l-5.7-1.827A12.175,12.175,0,0,1,43.468,23.209a1.462,1.462,0,0,0,.643,1.272L64.047,38.088l0.029,10.055Zm23.415,2.4L46.435,22.508A15.1,15.1,0,0,0,20.74,11.941a1.462,1.462,0,0,0,.57,2.426l8.258,2.748a3.318,3.318,0,0,1,1.988,2.163,6.356,6.356,0,0,1,0,4.092c-0.979,2.748-3.406,4.5-5.364,3.844l-7.6-2.528a1.462,1.462,0,0,0-1.886,1.754,15.084,15.084,0,0,0,23.166,8.769L63.3,51.154H13.9V2.923H64.077V34.551h0Z"/>
</svg>
