<svg xmlns="http://www.w3.org/2000/svg" width="79" height="75" viewBox="0 0 79 75">
  <defs>
    <style>
      .cls-1 {
        fill: #007078;
        fill-rule: evenodd;
      }
    </style>
  </defs>
  <path id="Forma_1" data-name="Forma 1" class="cls-1" d="M50.8,51.995V50.632a14.259,14.259,0,0,0,1.121-1.007,20.163,20.163,0,0,0,5.173-11.288,10.065,10.065,0,0,0,6.489-3.822c2.168-3.037,2.363-7.407.553-12.888a1.483,1.483,0,0,0-.6-0.77l-0.822-.548A19.972,19.972,0,0,0,57.869,6.785C53.847,2.3,47.671.03,39.493,0,31.329,0,25.138,2.3,21.116,6.725A19.972,19.972,0,0,0,16.272,20.25l-0.822.548a1.483,1.483,0,0,0-.6.77c-1.809,5.511-1.615,9.851.553,12.888a10.094,10.094,0,0,0,6.489,3.866,20.179,20.179,0,0,0,5.189,11.3A14.546,14.546,0,0,0,28.2,50.632v1.363C22.477,53.091-.385,58.409,0,73.519A1.488,1.488,0,0,0,1.5,75h76A1.489,1.489,0,0,0,79,73.519C79.385,58.409,56.523,53.091,50.8,51.995ZM21,35.019a6.486,6.486,0,0,1-3.17-2.3L17.9,32.737c-1.5-2.163-1.63-5.437-.3-9.762l1.092-.726a1.477,1.477,0,0,0,.658-1.378A17.4,17.4,0,0,1,23.419,8.681C26.8,4.888,32.226,2.992,39.493,2.963S52.187,4.888,55.626,8.681a17.4,17.4,0,0,1,4.067,12.191,1.476,1.476,0,0,0,.658,1.378l1.092,0.726c1.331,4.311,1.241,7.6-.3,9.762a6.518,6.518,0,0,1-3.185,2.3A9.806,9.806,0,0,0,60.4,27.627a6.919,6.919,0,0,0-2.407-4.148C57.346,8.666,46.864,7.007,42.348,7.007a19.027,19.027,0,0,0-2.856.207,18.986,18.986,0,0,0-2.856-.207c-4.486,0-14.952,1.629-15.64,16.472a6.92,6.92,0,0,0-2.437,4.133A9.792,9.792,0,0,0,21,35.019ZM55.013,22.872a31.028,31.028,0,0,1-17.868-4.444,1.506,1.506,0,0,0-1.944.193c-2.99,3.185-8.448,3.925-11.08,4.089,0.807-10.473,7.207-12.754,12.59-12.754a14.58,14.58,0,0,1,2.557.207,1.51,1.51,0,0,0,.6,0,14.638,14.638,0,0,1,2.557-.207c5.338,0,11.767,2.34,12.515,12.9ZM24.645,35.3l0.06,0.015a1.473,1.473,0,0,0-.374-0.992c-2.049-2.326-2.99-4.444-2.736-6.192a3.915,3.915,0,0,1,1.361-2.5c1.974,0,8.971-.37,13.457-4.207a33.96,33.96,0,0,0,16.6,4.444,19.88,19.88,0,0,0,3.08-.163,3.9,3.9,0,0,1,1.346,2.429C57.69,29.849,56.747,32,54.7,34.323a1.473,1.473,0,0,0-.374.992v0.77l-8.7,4.622a4.335,4.335,0,0,0-6.088.165A4.238,4.238,0,0,0,39.7,46.9a4.335,4.335,0,0,0,6.087-.165A4.245,4.245,0,0,0,46.969,43.8a3.981,3.981,0,0,0,0-.4l6.863-3.644a16.241,16.241,0,0,1-4.007,7.821,13.393,13.393,0,0,1-9.913,3.674H39.164a13.424,13.424,0,0,1-9.9-3.659C24.54,42.929,24.645,35.374,24.645,35.3Zm19.333,8.5a1.331,1.331,0,1,1-1.331-1.318A1.325,1.325,0,0,1,43.978,43.8ZM38,71.949H3.039C4.22,60.824,22.477,56.172,28.189,54.972v2.652c0,3.363,4.127,5.925,9.809,6.355v7.97ZM31.179,57.624V52.513a18.221,18.221,0,0,0,7.94,1.659h0.748a18.222,18.222,0,0,0,7.94-1.659v5.111c0,1.407-3.245,3.437-8.313,3.437S31.179,59.031,31.179,57.624Zm9.809,14.369V63.964C46.67,63.579,50.8,61,50.8,57.609V55.017c5.757,1.185,23.924,5.836,25.15,16.976H40.988Z"/>
</svg>
