<svg xmlns="http://www.w3.org/2000/svg" width="39" height="37" viewBox="0 0 39 37">
  <defs>
    <style>
      .cls-1 {
        fill: #ccd500;
        fill-rule: evenodd;
      }
    </style>
  </defs>
  <path class="cls-1" d="M37.657,16.48a2.778,2.778,0,0,0,.718-2.882,2.812,2.812,0,0,0-2.289-1.914l-9.409-1.355a0.566,0.566,0,0,1-.427-0.308L22.042,1.567a2.846,2.846,0,0,0-5.086,0l-4.208,8.453a0.567,0.567,0,0,1-.427.308L2.913,11.683A2.812,2.812,0,0,0,.623,13.6a2.777,2.777,0,0,0,.718,2.882l6.808,6.58a0.559,0.559,0,0,1,.163.5L6.705,32.848A2.783,2.783,0,0,0,7.833,35.6a2.839,2.839,0,0,0,2.986.214l8.415-4.387a0.571,0.571,0,0,1,.528,0l8.416,4.387a2.839,2.839,0,0,0,2.986-.214,2.784,2.784,0,0,0,1.128-2.75l-1.607-9.291a0.56,0.56,0,0,1,.163-0.5ZM28.45,23.937l1.607,9.291a0.546,0.546,0,0,1-.226.55,0.556,0.556,0,0,1-.6.043l-8.415-4.387a2.857,2.857,0,0,0-2.639,0L9.764,33.821a0.556,0.556,0,0,1-.6-0.043,0.546,0.546,0,0,1-.226-0.55l1.607-9.291a2.8,2.8,0,0,0-.816-2.489l-6.808-6.58a0.544,0.544,0,0,1-.143-0.577,0.551,0.551,0,0,1,.458-0.383l9.409-1.355a2.834,2.834,0,0,0,2.135-1.538l4.208-8.453a0.569,0.569,0,0,1,1.017,0h0l4.208,8.453a2.834,2.834,0,0,0,2.135,1.538l9.409,1.355a0.551,0.551,0,0,1,.458.383,0.545,0.545,0,0,1-.143.576l-6.808,6.58A2.8,2.8,0,0,0,28.45,23.937Z"/>
</svg>
