<svg xmlns="http://www.w3.org/2000/svg" width="19" height="21" viewBox="0 0 19 21">
  <defs>
    <style>
      .cls-1 {
        fill: #282828;
        fill-rule: evenodd;
      }
    </style>
  </defs>
  <path class="cls-1" d="M18.777,18.647a0.594,0.594,0,0,1-.241.274A18.388,18.388,0,0,1,9.507,21,18.332,18.332,0,0,1,.478,18.921a0.568,0.568,0,0,1-.241-0.274A6.289,6.289,0,0,1,0,16.677V16.664a0.83,0.83,0,0,0,0-.109c0.028-.857.088-2.87,2.1-3.518l0.046-.013a13.591,13.591,0,0,0,3.839-1.644,0.649,0.649,0,0,1,.87.143,0.565,0.565,0,0,1-.153.818,14.959,14.959,0,0,1-4.223,1.813c-1.078.361-1.2,1.444-1.23,2.436,0,0.039,0,.074,0,0.109a7.03,7.03,0,0,0,.1,1.344A17.987,17.987,0,0,0,9.5,19.83a17.878,17.878,0,0,0,8.155-1.783,7.434,7.434,0,0,0,.1-1.344,0.825,0.825,0,0,1,0-.109c-0.032-.991-0.153-2.074-1.23-2.435A14.807,14.807,0,0,1,12.3,12.346a0.564,0.564,0,0,1-.153-0.817,0.649,0.649,0,0,1,.87-0.143,13.73,13.73,0,0,0,3.839,1.644L16.9,13.042c2.008,0.644,2.068,2.657,2.1,3.518,0,0.039,0,.074,0,0.109v0.013A6.6,6.6,0,0,1,18.777,18.647Zm-9.21-7.332H9.419A4.38,4.38,0,0,1,6.163,9.989C4.382,8.1,4.678,4.866,4.71,4.558A4.4,4.4,0,0,1,6.981.6,5.418,5.418,0,0,1,9.47,0H9.549a5.4,5.4,0,0,1,2.489.613,4.4,4.4,0,0,1,2.243,3.944c0.032,0.309.328,3.544-1.453,5.432A4.4,4.4,0,0,1,9.567,11.315Zm3.474-6.649a0.079,0.079,0,0,1,0-.035A3.3,3.3,0,0,0,9.521,1.179H9.465A3.284,3.284,0,0,0,5.95,4.631c0,0.009,0,.022,0,0.035s-0.319,3,1.147,4.545a3.118,3.118,0,0,0,2.378.931H9.516A3.128,3.128,0,0,0,11.9,9.211C13.369,7.654,13.046,4.7,13.041,4.666Z"/>
</svg>
