<svg xmlns="http://www.w3.org/2000/svg" width="26" height="25" viewBox="0 0 26 25">
  <defs>
    <style>
      .cls-1 {
        fill: #007078;
        fill-rule: evenodd;
      }
    </style>
  </defs>
  <path id="_" data-name="@" class="cls-1" d="M13.077-.006a14.2,14.2,0,0,0-6.806,1.6,11.54,11.54,0,0,0-4.63,4.43,12.562,12.562,0,0,0-1.65,6.439,12.792,12.792,0,0,0,1.636,6.466A11.529,11.529,0,0,0,6.215,23.4a13.874,13.874,0,0,0,6.751,1.61,15.561,15.561,0,0,0,3.133-.33,10.881,10.881,0,0,0,2.828-.963l-0.61-1.761a10.2,10.2,0,0,1-2.578.908,13.229,13.229,0,0,1-2.772.3A11.7,11.7,0,0,1,7.241,21.8a9.706,9.706,0,0,1-3.854-3.783,11.074,11.074,0,0,1-1.372-5.558A10.93,10.93,0,0,1,3.4,6.928a9.66,9.66,0,0,1,3.9-3.77,12.025,12.025,0,0,1,5.78-1.348A12.381,12.381,0,0,1,18.83,3.1a9.491,9.491,0,0,1,3.9,3.618A10.306,10.306,0,0,1,24.111,12.1a9.485,9.485,0,0,1-.679,4,2.094,2.094,0,0,1-1.9,1.417A1.475,1.475,0,0,1,20.4,17.04a2.158,2.158,0,0,1-.444-1.5V5.635H17.541V7.863a5.48,5.48,0,0,0-2.163-1.747,6.967,6.967,0,0,0-2.911-.592,6.873,6.873,0,0,0-3.493.894,6.288,6.288,0,0,0-2.426,2.5,7.464,7.464,0,0,0-.873,3.618,7.52,7.52,0,0,0,.873,3.646A6.382,6.382,0,0,0,8.974,18.7a6.789,6.789,0,0,0,3.493.908,6.8,6.8,0,0,0,3.091-.674A5.524,5.524,0,0,0,17.735,17a3.1,3.1,0,0,0,1.123,1.94,3.5,3.5,0,0,0,2.2.674A4.1,4.1,0,0,0,24.693,17.6,10.094,10.094,0,0,0,26,12.073,11.966,11.966,0,0,0,24.347,5.8a11.315,11.315,0,0,0-4.588-4.279A14.276,14.276,0,0,0,13.077-.006h0ZM12.855,17.466a4.538,4.538,0,0,1-3.4-1.348,4.9,4.9,0,0,1-1.317-3.577,4.881,4.881,0,0,1,1.3-3.563,4.553,4.553,0,0,1,3.41-1.335,4.922,4.922,0,0,1,2.426.592,4.312,4.312,0,0,1,1.691,1.706,5.235,5.235,0,0,1,.624,2.6,5.235,5.235,0,0,1-.624,2.6,4.4,4.4,0,0,1-1.691,1.72,4.83,4.83,0,0,1-2.426.605h0Z"/>
</svg>
