<svg xmlns="http://www.w3.org/2000/svg" width="80" height="80" viewBox="0 0 80 80">
  <defs>
    <style>
      .cls-1 {
        fill: #f7a400;
      }

      .cls-2 {
        fill: #fff;
        fill-rule: evenodd;
      }
    </style>
  </defs>
  <rect id="Rectangle_35_copy_2" data-name="Rectangle 35 copy 2" class="cls-1" width="80" height="80"/>
  <path id="Shape_1_copy_4" data-name="Shape 1 copy 4" class="cls-2" d="M40.492,20A15.646,15.646,0,0,0,25.276,38.568c0.008,0.057.04,0.229,0.105,0.523a15.488,15.488,0,0,0,1.037,3.082c1.669,3.965,5.339,10.057,13.393,16.581a1.09,1.09,0,0,0,1.377,0c8.046-6.524,11.724-12.616,13.393-16.581a15.312,15.312,0,0,0,1.037-3.082c0.065-.294.1-0.466,0.105-0.523A16.2,16.2,0,0,0,56,35.633,15.608,15.608,0,0,0,40.492,20ZM53.553,38.184c0,0.016-.008.033-0.008,0.049-0.008.041-.032,0.163-0.073,0.351V38.6a13.05,13.05,0,0,1-.9,2.665c-0.008.008-.008,0.025-0.016,0.032-1.515,3.622-4.837,9.149-12.064,15.175C33.265,50.448,29.943,44.921,28.427,41.3c-0.008-.008-0.008-0.024-0.016-0.032a13.926,13.926,0,0,1-.9-2.665V38.584c-0.049-.188-0.065-0.311-0.073-0.351,0-.017-0.008-0.033-0.008-0.057A13.3,13.3,0,1,1,53.553,38.184Zm-13.061-12.3A9.926,9.926,0,1,0,50.328,35.8,9.9,9.9,0,0,0,40.492,25.879Zm0,17.644A7.718,7.718,0,1,1,48.141,35.8,7.693,7.693,0,0,1,40.492,43.523Z"/>
</svg>
