<svg xmlns="http://www.w3.org/2000/svg" width="21" height="25" viewBox="0 0 21 25">
  <defs>
    <style>
      .cls-1 {
        fill: #007078;
        fill-rule: evenodd;
      }
    </style>
  </defs>
  <path id="Shape_1_copy_6" data-name="Shape 1 copy 6" class="cls-1" d="M10.411,13.471h0.164a4.691,4.691,0,0,0,3.6-1.579c1.968-2.247,1.641-6.1,1.605-6.466C15.656,2.666,14.368,1.346,13.3.73A5.63,5.63,0,0,0,10.554,0H10.467a5.634,5.634,0,0,0-2.75.71c-1.074.616-2.382,1.936-2.51,4.716-0.036.368-.363,4.219,1.605,6.466A4.672,4.672,0,0,0,10.411,13.471ZM6.571,5.555c0-.016.005-0.031,0.005-0.042C6.745,1.8,9.347,1.4,10.462,1.4h0.061c1.38,0.031,3.727.6,3.886,4.11a0.1,0.1,0,0,0,.005.042c0.005,0.036.363,3.557-1.263,5.41a3.331,3.331,0,0,1-2.633,1.108H10.467a3.32,3.32,0,0,1-2.628-1.108C6.218,9.122,6.566,5.586,6.571,5.555ZM21,19.859V19.843c0-.041,0-0.082,0-0.129-0.031-1.025-.1-3.422-2.316-4.188l-0.051-.016a14.659,14.659,0,0,1-4.243-1.957,0.684,0.684,0,0,0-.961.171,0.7,0.7,0,0,0,.169.973,15.821,15.821,0,0,0,4.668,2.159c1.191,0.43,1.324,1.719,1.36,2.9a1.056,1.056,0,0,0,.005.129,9.52,9.52,0,0,1-.107,1.6A18.639,18.639,0,0,1,10.5,23.607,18.733,18.733,0,0,1,1.484,21.48a9,9,0,0,1-.107-1.6c0-.041.005-0.083,0.005-0.13,0.036-1.18.169-2.469,1.36-2.9A15.981,15.981,0,0,0,7.41,14.692a0.7,0.7,0,0,0,.169-0.973,0.684,0.684,0,0,0-.961-0.17,14.519,14.519,0,0,1-4.243,1.957c-0.021.005-.036,0.011-0.051,0.016C0.1,16.292.037,18.689,0.007,19.709a1.05,1.05,0,0,1-.005.13v0.016A8.04,8.04,0,0,0,.262,22.2a0.662,0.662,0,0,0,.266.326A19.162,19.162,0,0,0,10.508,25a19.22,19.22,0,0,0,9.98-2.474,0.691,0.691,0,0,0,.266-0.326A8.427,8.427,0,0,0,21,19.859Z"/>
</svg>
