<svg xmlns="http://www.w3.org/2000/svg" width="24" height="24" viewBox="0 0 24 24">
  <defs>
    <style>
      .cls-1 {
        fill: #007078;
        fill-rule: evenodd;
      }
    </style>
  </defs>
  <path class="cls-1" d="M22.445,1.553a5.293,5.293,0,0,0-7.492,0L1.218,15.285a0.688,0.688,0,0,0-.194.394L0.006,23.218A0.685,0.685,0,0,0,.2,23.8a0.7,0.7,0,0,0,.486.2,0.556,0.556,0,0,0,.092-0.005l4.541-.614a0.691,0.691,0,0,0-.184-1.371L1.494,22.5l0.711-5.258,5.533,5.534a0.7,0.7,0,0,0,.486.2,0.676,0.676,0,0,0,.486-0.2L22.445,9.045A5.291,5.291,0,0,0,22.445,1.553ZM15.22,3.241l2.306,2.307L4.992,18.083,2.686,15.776ZM8.229,21.315L5.974,19.06,18.508,6.524l2.255,2.256Zm13.5-13.523L16.207,2.274A3.92,3.92,0,0,1,21.724,7.792Z"/>
</svg>
