<svg xmlns="http://www.w3.org/2000/svg" width="38" height="34" viewBox="0 0 38 34">
  <defs>
    <style>
      .cls-1 {
        fill: #ccd500;
        fill-rule: evenodd;
      }
    </style>
  </defs>
  <path id="Forma_1" data-name="Forma 1" class="cls-1" d="M37.723,9C36.641,3.567,32.771.065,27.787,0.065a15.166,15.166,0,0,0-8.755,3.305A15.012,15.012,0,0,0,10.211,0C5.227,0,1.324,3.534.275,9.032-1.3,17.18,3.751,28.012,18.54,33.9a1.281,1.281,0,0,0,.984,0C34.28,27.881,39.3,17.082,37.723,9ZM19.032,31.218C6.046,25.852,1.554,16.493,2.9,9.523c0.787-4.156,3.673-6.872,7.312-6.872,2.459,0,5.214,1.178,7.968,3.436a1.334,1.334,0,0,0,1.672,0c2.755-2.192,5.476-3.338,7.935-3.338,3.64,0,6.493,2.651,7.312,6.774C36.444,16.427,31.984,25.753,19.032,31.218Z"/>
</svg>
