<svg xmlns="http://www.w3.org/2000/svg" width="65" height="63" viewBox="0 0 65 63">
  <defs>
    <style>
      .cls-1 {
        fill: #0e7077;
        fill-rule: evenodd;
      }
    </style>
  </defs>
  <path class="cls-1" d="M1373.71,791.833c0-13.195-10.38-23.833-23.21-23.833s-23.21,10.638-23.21,23.774v0.059a9.989,9.989,0,0,0-9.29,10.044v1.189a9.979,9.979,0,0,0,9.87,10.1h0.52l4.12,6.716a15.436,15.436,0,0,0,13.29,7.548h0.81a4.756,4.756,0,1,0,0-2.378h-0.81a13.187,13.187,0,0,1-11.32-6.478l-3.36-5.408h0.81a2.354,2.354,0,0,0,2.32-2.377V794.151a2.353,2.353,0,0,0-2.32-2.377h-2.32a20.9,20.9,0,1,1,41.78,0h-2.32a2.353,2.353,0,0,0-2.32,2.377v16.642a2.354,2.354,0,0,0,2.32,2.377h4.06a9.979,9.979,0,0,0,9.87-10.1v-1.189A9.989,9.989,0,0,0,1373.71,791.833Zm-22.63,32.035a2.378,2.378,0,1,1-2.32,2.377A2.353,2.353,0,0,1,1351.08,823.868Zm-19.15-29.717v16.642h-4.06a7.626,7.626,0,0,1-7.55-7.727v-1.189a7.625,7.625,0,0,1,7.55-7.726h4.06Zm48.75,8.915a7.626,7.626,0,0,1-7.55,7.727h-4.06V794.151h4.06a7.625,7.625,0,0,1,7.55,7.726v1.189Zm-20.55-26.092c-0.11-.059-0.29-0.178-0.46-0.3s-0.35-.238-0.46-0.3a1.08,1.08,0,0,0-1.57.416,1.18,1.18,0,0,0,.4,1.6c0.12,0.06.29,0.179,0.47,0.3a2.3,2.3,0,0,0,.52.3,1.125,1.125,0,0,0,.58.178,1.073,1.073,0,0,0,.99-0.593A1.22,1.22,0,0,0,1360.13,776.974Zm-9.63-3.031a16.651,16.651,0,0,0-12.77,6,1.227,1.227,0,0,0,.12,1.664,1.186,1.186,0,0,0,.75.3,1.027,1.027,0,0,0,.87-0.416,14.508,14.508,0,0,1,11.03-5.17,14.032,14.032,0,0,1,3.13.356,1.189,1.189,0,0,0,.53-2.318A15.381,15.381,0,0,0,1350.5,773.943Z" transform="translate(-1318 -768)"/>
</svg>
