<svg xmlns="http://www.w3.org/2000/svg" width="19" height="21" viewBox="0 0 19 21">
  <defs>
    <style>
      .cls-1 {
        fill: #ccd500;
        fill-rule: evenodd;
      }
    </style>
  </defs>
  <path class="cls-1" d="M9.419,11.315H9.567a4.4,4.4,0,0,0,3.261-1.326c1.781-1.887,1.485-5.123,1.452-5.432A4.4,4.4,0,0,0,12.037.613,5.4,5.4,0,0,0,9.549,0H9.47A5.418,5.418,0,0,0,6.981.6,4.4,4.4,0,0,0,4.71,4.557C4.678,4.866,4.382,8.1,6.163,9.989A4.38,4.38,0,0,0,9.419,11.315ZM5.945,4.666c0-.013,0-0.026,0-0.035A3.284,3.284,0,0,1,9.465,1.179H9.521a3.3,3.3,0,0,1,3.515,3.453,0.079,0.079,0,0,0,0,.035c0,0.031.328,2.988-1.143,4.545a3.128,3.128,0,0,1-2.382.931H9.47a3.117,3.117,0,0,1-2.378-.931C5.626,7.663,5.941,4.692,5.945,4.666ZM19,16.682V16.669c0-.035,0-0.07,0-0.109-0.028-.861-0.088-2.874-2.1-3.518l-0.046-.013a13.728,13.728,0,0,1-3.839-1.644,0.649,0.649,0,0,0-.87.143,0.564,0.564,0,0,0,.153.817,14.808,14.808,0,0,0,4.223,1.814c1.078,0.361,1.2,1.444,1.23,2.435a0.808,0.808,0,0,0,0,.109,7.445,7.445,0,0,1-.1,1.344A17.878,17.878,0,0,1,9.5,19.83a17.985,17.985,0,0,1-8.159-1.787,7.028,7.028,0,0,1-.1-1.344c0-.035,0-0.07,0-0.109,0.032-.992.153-2.074,1.23-2.436A14.96,14.96,0,0,0,6.7,12.342a0.565,0.565,0,0,0,.153-0.817,0.649,0.649,0,0,0-.87-0.143,13.587,13.587,0,0,1-3.839,1.644L2.1,13.038c-2.007.648-2.068,2.661-2.1,3.518a0.83,0.83,0,0,1,0,.109v0.013a6.289,6.289,0,0,0,.236,1.97,0.569,0.569,0,0,0,.241.274A18.334,18.334,0,0,0,9.507,21a18.388,18.388,0,0,0,9.029-2.079,0.594,0.594,0,0,0,.241-0.274A6.6,6.6,0,0,0,19,16.682Z"/>
</svg>
