<svg xmlns="http://www.w3.org/2000/svg" width="40" height="40" viewBox="0 0 40 40">
  <defs>
    <style>
      .cls-1 {
        fill: #fff;
        fill-rule: evenodd;
      }
    </style>
  </defs>
  <path class="cls-1" d="M20,0A20,20,0,1,0,40,20,20.023,20.023,0,0,0,20,0Zm0,37.538A17.538,17.538,0,1,1,37.538,20,17.558,17.558,0,0,1,20,37.538ZM20.319,9.967a2.058,2.058,0,1,1-2.058,2.059A2.059,2.059,0,0,1,20.319,9.967Zm-0.542,7.474a1.231,1.231,0,0,0-1.231,1.231V29.134a1.231,1.231,0,0,0,2.462,0V18.672A1.231,1.231,0,0,0,19.777,17.441Z"/>
</svg>
