<svg xmlns="http://www.w3.org/2000/svg" width="27" height="30" viewBox="0 0 27 30">
  <defs>
    <style>
      .cls-1 {
        fill: #fff;
        fill-rule: evenodd;
      }
    </style>
  </defs>
  <path class="cls-1" d="M235.674,427.018a0.667,0.667,0,0,0-.66-0.015l-4.325,2.331v-2a0.669,0.669,0,0,0-.669-0.669h-1.088a6,6,0,1,0-9.6-6.072,4.522,4.522,0,1,0-6.69,6.072h-0.611a0.669,0.669,0,0,0-.669.669v3.04h-1.693a0.669,0.669,0,0,0-.669.67v2.633a0.669,0.669,0,0,0,.669.67h1.693v3.04a0.67,0.67,0,0,0,.669.669h7.891l-3.625,6.963a0.669,0.669,0,1,0,1.186.619l3.542-6.8,3.543,6.8a0.669,0.669,0,1,0,1.186-.619l-3.626-6.963h7.892a0.67,0.67,0,0,0,.669-0.669v-2l4.325,2.331a0.669,0.669,0,0,0,.986-0.589v-9.54A0.669,0.669,0,0,0,235.674,427.018Zm-24.312,5.992h-1.024v-1.3h1.024v1.3Zm13.8-15.671A4.664,4.664,0,1,1,220.5,422,4.667,4.667,0,0,1,225.161,417.339Zm-5.108,7.805a6.046,6.046,0,0,0,1.337,1.523h-2.333A4.565,4.565,0,0,0,220.053,425.144Zm-4.2-4.852a3.188,3.188,0,1,1-3.184,3.187A3.189,3.189,0,0,1,215.849,420.292Zm13.5,10.162v6.265H212.7v-8.713h16.651v2.448Zm5.311,5.557-3.973-2.141v-3.015l3.973-2.142v7.3Zm-18.813-14.566a2.034,2.034,0,1,0,2.032,2.034A2.036,2.036,0,0,0,215.849,421.445Zm0,2.863a0.829,0.829,0,1,1,.828-0.829A0.83,0.83,0,0,1,215.849,424.308Zm9.312-5.226A2.921,2.921,0,1,0,228.079,422,2.923,2.923,0,0,0,225.161,419.082Zm0,4.5a1.582,1.582,0,1,1,1.58-1.582A1.583,1.583,0,0,1,225.161,423.585ZM223,429.953H215.73a0.635,0.635,0,0,0-.635.636v3.546a0.635,0.635,0,0,0,.635.636H223a0.635,0.635,0,0,0,.635-0.636v-3.546A0.635,0.635,0,0,0,223,429.953Zm-0.636,3.546h-6v-2.273h6V433.5h0Zm4.144-2.91a0.67,0.67,0,1,1-.669.67A0.669,0.669,0,0,1,226.511,430.589Zm0,2.207a0.67,0.67,0,1,1-.669.669A0.669,0.669,0,0,1,226.511,432.8Z" transform="translate(-209 -416)"/>
</svg>
