<svg xmlns="http://www.w3.org/2000/svg" width="9" height="19" viewBox="0 0 9 19">
  <defs>
    <style>
      .cls-1 {
        fill: #fff;
        fill-rule: evenodd;
      }
    </style>
  </defs>
  <path id="Forma_1" data-name="Forma 1" class="cls-1" d="M5.989,6.225V4.588a3.537,3.537,0,0,1,.035-0.571,1.1,1.1,0,0,1,.158-0.4,0.646,0.646,0,0,1,.4-0.271,2.881,2.881,0,0,1,.733-0.075H8.977V0H6.317A4.374,4.374,0,0,0,3,1.077,4.494,4.494,0,0,0,1.992,4.253V6.225H0V9.5H1.992V19h4V9.5h2.66L9,6.225H5.989Z"/>
</svg>
