<svg xmlns="http://www.w3.org/2000/svg" width="27" height="27" viewBox="0 0 27 27">
  <defs>
    <style>
      .cls-1 {
        fill: #007078;
        fill-rule: evenodd;
      }
    </style>
  </defs>
  <path id="Shape_1_copy_10" data-name="Shape 1 copy 10" class="cls-1" d="M26.363,12.777a1,1,0,0,1-.131.012,0.766,0.766,0,0,1-.759-0.639A13.059,13.059,0,0,0,14.822,1.508a0.769,0.769,0,1,1,.251-1.517A14.619,14.619,0,0,1,26.991,11.9,0.756,0.756,0,0,1,26.363,12.777ZM14.862,4.89A8.878,8.878,0,0,1,22.1,12.121a0.771,0.771,0,0,1-.634.89,1,1,0,0,1-.131.011,0.765,0.765,0,0,1-.759-0.639,7.342,7.342,0,0,0-5.982-5.977,0.762,0.762,0,0,1-.622-0.89A0.774,0.774,0,0,1,14.862,4.89ZM9.748,9.971c-0.422.428-.856,0.873-1.324,1.3A11.561,11.561,0,0,0,9.965,13.7a19.606,19.606,0,0,0,4.7,4.277c0.165,0.1.36,0.2,0.565,0.3,0.143,0.074.291,0.148,0.439,0.228l1.8-1.8a2.751,2.751,0,0,1,1.952-.878,2.661,2.661,0,0,1,1.929.884l3.133,3.142a2.739,2.739,0,0,1,.879,1.956,2.844,2.844,0,0,1-.862,1.973c-0.245.257-.5,0.5-0.742,0.736a12.95,12.95,0,0,0-1,1.032c-0.006.011-.017,0.017-0.023,0.029A4.3,4.3,0,0,1,19.446,27c-0.114,0-.24-0.006-0.36-0.012a13.944,13.944,0,0,1-5.023-1.483,26.857,26.857,0,0,1-8.944-7A24.55,24.55,0,0,1,.753,11.232,9.989,9.989,0,0,1,.023,7,4.17,4.17,0,0,1,1.261,4.348L3.2,2.392l0.011-.011a2.8,2.8,0,0,1,1.941-.838,2.7,2.7,0,0,1,1.912.838C7.437,2.723,7.8,3.088,8.139,3.442,8.31,3.624,8.493,3.807,8.67,3.983L10.228,5.54a2.615,2.615,0,0,1,0,3.947C10.068,9.646,9.908,9.812,9.748,9.971ZM9.143,6.629L7.585,5.073C7.4,4.884,7.22,4.7,7.043,4.519,6.695,4.16,6.364,3.824,6.016,3.5L6,3.481a1.222,1.222,0,0,0-.833-0.4,1.3,1.3,0,0,0-.868.405L2.352,5.432a2.618,2.618,0,0,0-.788,1.693A8.138,8.138,0,0,0,2.2,10.7a23.146,23.146,0,0,0,4.109,6.838,25.342,25.342,0,0,0,8.424,6.592,12.384,12.384,0,0,0,4.452,1.335c0.085,0.005.177,0.005,0.262,0.005a2.753,2.753,0,0,0,2.146-.907,14.992,14.992,0,0,1,1.1-1.141c0.245-.24.474-0.456,0.7-0.7a1.127,1.127,0,0,0-.006-1.785L20.245,17.8l-0.011-.012a1.162,1.162,0,0,0-.822-0.416,1.29,1.29,0,0,0-.862.428L16.6,19.746a1.221,1.221,0,0,1-.867.394A1.237,1.237,0,0,1,15.165,20c-0.023-.012-0.046-0.028-0.069-0.04-0.165-.1-0.359-0.2-0.565-0.3a7.8,7.8,0,0,1-.7-0.382,20.942,20.942,0,0,1-5.068-4.608l-0.006-.006a12.5,12.5,0,0,1-1.844-3.005L6.895,11.6a1.162,1.162,0,0,1,.3-1.294,0.127,0.127,0,0,1,.029-0.028c0.5-.445.953-0.9,1.433-1.392,0.165-.16.325-0.325,0.491-0.49A1.088,1.088,0,0,0,9.143,6.629Z"/>
</svg>
