<svg xmlns="http://www.w3.org/2000/svg" width="42" height="42" viewBox="0 0 42 42">
  <defs>
    <style>
      .cls-1 {
        fill: #ccd500;
        fill-rule: evenodd;
      }
    </style>
  </defs>
  <path id="Forma_1" data-name="Forma 1" class="cls-1" d="M35.849,35.849a21,21,0,0,1-29.7-29.7A21,21,0,1,1,35.849,35.849ZM21,2.461A18.539,18.539,0,1,0,39.539,21,18.56,18.56,0,0,0,21,2.461ZM19.3,27.738a1.23,1.23,0,0,1-1.74,0l-6.59-6.59a1.23,1.23,0,1,1,1.74-1.74l5.72,5.72L29.293,14.262A1.23,1.23,0,1,1,31.033,16Z"/>
</svg>
