<svg xmlns="http://www.w3.org/2000/svg" width="512.094" height="512" viewBox="0 0 512.094 512">
  <defs>
    <style>
      .cls-1 {
        fill: #eaeaea;
        fill-rule: evenodd;
        opacity: 0.07;
      }
    </style>
  </defs>
  <path id="Forma_1" data-name="Forma 1" class="cls-1" d="M919.511,2447.09l-61.284,6.81a171.5,171.5,0,0,1-62.468-4.37c8.173-10.67,15.519-21.23,22.019-30.92a14.66,14.66,0,0,0,3.967-5.97c20.681-31.29,20.968-33.24,32.3-41.22,21.491-14.1,54.312-15.51,62.658-15.1a15.082,15.082,0,0,0,13.59-26.42c-41.394-41.51-99.741-64.69-164.588-65.35a293.344,293.344,0,0,0-100.546,16.74C664.78,2206.62,604.377,2146,530.177,2146h-91a15,15,0,0,0-10.606,25.61c16.909,16.91,26.606,39.44,26.606,61.82v193.16c0,127.38,104.05,231.41,231.408,231.41h22.1a229.713,229.713,0,0,0,148.974-55.14,232.538,232.538,0,0,0,78.3-138.4A15,15,0,0,0,919.511,2447.09ZM762.905,2294.53c0.831,0,1.67.01,2.5,0.02,44.106,0.45,84.614,12.59,117.276,34.74l-1.558.3c-10.837,2.16-23.947,5.92-36.241,12.49-39.41-18.7-88.9-22.65-137.3-10.72a15,15,0,0,0,7.18,29.13c36.347-8.96,73.079-7.69,103.886,3.18-4.354,5.61-9.395,13.31-15.693,22.93-0.625.96-1.263,1.93-1.908,2.92a142.251,142.251,0,0,0-38.169-4.91,170,170,0,0,0-56.777,9.76,15,15,0,0,0,10.138,28.24,141.418,141.418,0,0,1,46.639-8,122.017,122.017,0,0,1,20.147,1.61c-36.806,52.11-93.122,113.49-163.856,74.95a84.408,84.408,0,0,1-43.993-73.56V2417a90.026,90.026,0,0,1,39.386-74.43c0.315-.22.623-0.45,0.921-0.68C652.139,2312.57,708.415,2294.53,762.905,2294.53Zm127.914,216.12c-27.291,3.03-35.772,4.3-51.71,4.3a235.136,235.136,0,0,1-35.662-2.72,15,15,0,0,0-4.556,29.66,266.639,266.639,0,0,0,40.217,3.07,273.545,273.545,0,0,0,33.282-2.08,199.444,199.444,0,0,1-163.7,85.12h-22.1c-111.057,0-201.408-90.35-201.408-201.41V2233.43A115.512,115.512,0,0,0,469.427,2176h60.748c57.9,0,105,47.55,105,106q0,5.94.35,11.89a219.373,219.373,0,0,0-38.336,24.22A120,120,0,0,0,545.175,2417l0,0.83c0.487,73.91,70.07,125.53,137.106,114.21,21.55-3.64,43.033-13.86,63.858-30.38a250.116,250.116,0,0,0,28.737-27.09,203.786,203.786,0,0,0,86.66,9.15l40.562-4.51A203.1,203.1,0,0,1,890.819,2510.65ZM530.177,2206a15,15,0,1,1-15,15A15,15,0,0,1,530.177,2206Z" transform="translate(-424.156 -2146)"/>
</svg>
