<svg xmlns="http://www.w3.org/2000/svg" width="27" height="27" viewBox="0 0 27 27">
  <defs>
    <style>
      .cls-1 {
        fill: #007078;
        fill-rule: evenodd;
      }
    </style>
  </defs>
  <path id="Forma_1" data-name="Forma 1" class="cls-1" d="M24.627,25.418H9.356A2.377,2.377,0,0,1,7.119,27H5.537A2.377,2.377,0,0,1,3.3,25.418H2.373A2.376,2.376,0,0,1,0,23.045V7.172A2.376,2.376,0,0,1,2.373,4.8H3.3A2.377,2.377,0,0,1,5.537,3.217H7.119A2.377,2.377,0,0,1,9.356,4.8h3.406V0.791A0.791,0.791,0,0,1,13.553,0h7.91a0.791,0.791,0,0,1,.791.791V4.8h2.373A2.376,2.376,0,0,1,27,7.172V23.045A2.376,2.376,0,0,1,24.627,25.418ZM3.164,6.381H2.373a0.792,0.792,0,0,0-.791.791V23.045a0.792,0.792,0,0,0,.791.791H3.164V6.381ZM7.91,5.59A0.792,0.792,0,0,0,7.119,4.8H5.537a0.792,0.792,0,0,0-.791.791V24.627a0.792,0.792,0,0,0,.791.791H7.119a0.792,0.792,0,0,0,.791-0.791V5.59ZM20.672,1.582H14.344V7.963h6.328V1.582Zm4.746,5.59a0.792,0.792,0,0,0-.791-0.791H22.254V7.963h0.791a0.791,0.791,0,0,1,0,1.582H11.971a0.791,0.791,0,0,1,0-1.582h0.791V6.381H9.492V23.836H24.627a0.792,0.792,0,0,0,.791-0.791V7.172ZM23.045,20.619H21.463a0.791,0.791,0,1,1,0-1.582h1.582A0.791,0.791,0,1,1,23.045,20.619Zm0-3.164H21.463a0.791,0.791,0,1,1,0-1.582h1.582A0.791,0.791,0,1,1,23.045,17.455Zm0-3.164H21.463a0.791,0.791,0,0,1,0-1.582h1.582A0.791,0.791,0,0,1,23.045,14.291ZM18.3,20.619H16.717a0.791,0.791,0,1,1,0-1.582H18.3A0.791,0.791,0,1,1,18.3,20.619Zm0-3.164H16.717a0.791,0.791,0,1,1,0-1.582H18.3A0.791,0.791,0,1,1,18.3,17.455Zm0-3.164H16.717a0.791,0.791,0,0,1,0-1.582H18.3A0.791,0.791,0,0,1,18.3,14.291Zm-4.746,6.328H11.971a0.791,0.791,0,1,1,0-1.582h1.582A0.791,0.791,0,1,1,13.553,20.619Zm0-3.164H11.971a0.791,0.791,0,1,1,0-1.582h1.582A0.791,0.791,0,1,1,13.553,17.455Zm0-3.164H11.971a0.791,0.791,0,0,1,0-1.582h1.582A0.791,0.791,0,1,1,13.553,14.291ZM16.717,4.8H18.3a0.791,0.791,0,0,1,0,1.582H16.717A0.791,0.791,0,0,1,16.717,4.8Z"/>
</svg>
