<svg xmlns="http://www.w3.org/2000/svg" width="46" height="40" viewBox="0 0 46 40">
  <defs>
    <style>
      .cls-1 {
        fill: #ccd500;
        fill-rule: evenodd;
      }
    </style>
  </defs>
  <path class="cls-1" d="M45.855,24.462a0.67,0.67,0,0,1-.507.552,0.683,0.683,0,0,1-.71-0.255,8.926,8.926,0,0,0-3.954-2.971,9.073,9.073,0,0,0-4.908-.53,0.7,0.7,0,0,1-.731-0.291,8.5,8.5,0,0,0-1.89-1.837L28.312,31.107a34.211,34.211,0,0,1,6.635,1.426c3.236,1.068,5.586,2.517,6.831,4.208a6.383,6.383,0,0,1,3.894,1.072,0.661,0.661,0,0,1,.18.925,0.682,0.682,0,0,1-.939.178,5.021,5.021,0,0,0-3.323-.823,0.682,0.682,0,0,1-.132.017,5.029,5.029,0,0,0-2.137.807,6.378,6.378,0,0,1-7.11,0,5.016,5.016,0,0,0-5.592,0,6.378,6.378,0,0,1-7.11,0,5.016,5.016,0,0,0-5.592,0,6.378,6.378,0,0,1-7.11,0,5.032,5.032,0,0,0-2.142-.808,0.681,0.681,0,0,1-.124-0.016,5.019,5.019,0,0,0-3.326.823,0.682,0.682,0,0,1-.939-0.178,0.66,0.66,0,0,1,.18-0.925A6.385,6.385,0,0,1,4.35,36.74c1.244-1.689,3.589-3.137,6.82-4.2a0.678,0.678,0,0,1,.856.42,0.664,0.664,0,0,1-.426.844A13.969,13.969,0,0,0,5.875,37.01a6.417,6.417,0,0,1,1.69.8,5.016,5.016,0,0,0,5.592,0,6.377,6.377,0,0,1,7.11,0,5.016,5.016,0,0,0,5.592,0,6.377,6.377,0,0,1,7.11,0,5.016,5.016,0,0,0,5.592,0,6.419,6.419,0,0,1,1.691-.8A13.977,13.977,0,0,0,34.518,33.8,33.623,33.623,0,0,0,27.3,32.337H27.288c-1.4-.137-2.814-0.2-4.224-0.2a40.725,40.725,0,0,0-8.558.878A0.676,0.676,0,0,1,13.7,32.5a0.666,0.666,0,0,1,.513-0.795,41.535,41.535,0,0,1,8.851-.909c0.137,0,.273,0,0.409,0l5.4-13.358a8.69,8.69,0,0,0-2.63.048,0.707,0.707,0,0,1-.779-0.308,8.944,8.944,0,0,0-3.912-2.915,9.062,9.062,0,0,0-4.944-.523,0.68,0.68,0,0,1-.693-0.3,0.658,0.658,0,0,1,.018-0.744,23.2,23.2,0,0,1,5.631-5.24c4.686-3.081,9.719-3.706,14.555-1.807a14.434,14.434,0,0,1,7.826,7.051,0.662,0.662,0,0,1-.3.894,0.681,0.681,0,0,1-.907-0.3,12.994,12.994,0,0,0-5.556-5.692l0.006,0.019a14.257,14.257,0,0,1,.58,2.6,18.9,18.9,0,0,1,0,4.583,24.59,24.59,0,0,1-1.116,4.894c-0.011.034-.022,0.068-0.033,0.1a10.845,10.845,0,0,1,8.012,2.91,21.6,21.6,0,0,0-.853-6.82,0.664,0.664,0,0,1,.453-0.83,0.678,0.678,0,0,1,.842.446A22.609,22.609,0,0,1,45.855,24.462ZM24.914,30.838c0.351,0.014.7,0.032,1.054,0.055q0.476,0.031.946,0.07l5.072-12.542s-0.773-.353-0.823-0.373a9.59,9.59,0,0,0-.946-0.322ZM36.033,8.5a10.194,10.194,0,0,0-.5-1.393,10.778,10.778,0,0,0-1.543.8,15.342,15.342,0,0,0-2.913,2.378,0.683,0.683,0,0,1-.956.023A0.66,0.66,0,0,1,30.1,9.372c0.319-.329.652-0.645,0.992-0.952A14.935,14.935,0,0,1,33.97,6.378l0.024-.013a13.158,13.158,0,0,0-5.772-.242A15.957,15.957,0,0,0,22.35,8.554a22.658,22.658,0,0,0-4.315,3.725,10.7,10.7,0,0,1,4.019.756A10.476,10.476,0,0,1,25.883,15.6l0.009-.019c0.17-.383.371-0.757,0.569-1.126A24.751,24.751,0,0,1,28.309,11.5a0.7,0.7,0,0,1,.944-0.149,0.671,0.671,0,0,1,.151.93,23.914,23.914,0,0,0-2.221,3.723l-0.022.045a10.713,10.713,0,0,1,4.831.9l0.053,0.023a10.418,10.418,0,0,1,3.329,2.307l0.006-.019q0.3-.912.533-1.846A17.582,17.582,0,0,0,36.033,8.5ZM14.712,8.249h-1.36a0.666,0.666,0,1,1,0-1.333h1.36A0.666,0.666,0,1,1,14.712,8.249ZM12.173,4.111a0.683,0.683,0,0,1-.956,0,0.659,0.659,0,0,1,0-.942l0.962-.948a0.683,0.683,0,0,1,.956,0,0.659,0.659,0,0,1,0,.942Zm0,6.944L13.134,12a0.659,0.659,0,0,1,0,.942,0.683,0.683,0,0,1-.956,0L11.216,12a0.659,0.659,0,0,1,0-.942A0.683,0.683,0,0,1,12.173,11.055Zm-3.8,2.1V14.5a0.676,0.676,0,0,1-1.352,0v-1.34A0.676,0.676,0,0,1,8.37,13.159ZM7.694,11.879a4.3,4.3,0,1,1,4.359-4.3A4.333,4.333,0,0,1,7.694,11.879Zm0-7.26A2.964,2.964,0,1,0,10.7,7.583,2.989,2.989,0,0,0,7.694,4.619Zm0-1.946a0.671,0.671,0,0,1-.676-0.666V0.666a0.676,0.676,0,0,1,1.352,0v1.34A0.671,0.671,0,0,1,7.694,2.673Zm-4,1.633a0.679,0.679,0,0,1-.478-0.2L2.253,3.163a0.66,0.66,0,0,1,0-.942,0.683,0.683,0,0,1,.956,0L4.171,3.169a0.66,0.66,0,0,1,0,.942A0.679,0.679,0,0,1,3.693,4.306Zm0.478,6.748a0.66,0.66,0,0,1,0,.942l-0.962.948a0.684,0.684,0,0,1-.956,0,0.66,0.66,0,0,1,0-.942l0.962-.948A0.683,0.683,0,0,1,4.171,11.055ZM2.712,7.583a0.671,0.671,0,0,1-.676.666H0.676a0.666,0.666,0,1,1,0-1.333h1.36A0.671,0.671,0,0,1,2.712,7.583Z"/>
</svg>
