<svg xmlns="http://www.w3.org/2000/svg" width="21" height="21" viewBox="0 0 21 21">
  <defs>
    <style>
      .cls-1 {
        fill: #282828;
        fill-rule: evenodd;
      }
    </style>
  </defs>
  <path id="Forma_1" data-name="Forma 1" class="cls-1" d="M10.5,0a10.5,10.5,0,1,1-7.42,3.075A10.5,10.5,0,0,1,10.5,0h0ZM15.85,9.927a0.573,0.573,0,0,1,0,1.146H10.5A0.573,0.573,0,0,1,10,10.783L10,10.774h0l-0.008-.016h0V10.75h0l-0.008-.016h0l-0.008-.016h0V10.71h0l-0.008-.016h0l-0.008-.008h0V10.669h0l-0.008-.017h0V10.645h0l-0.008-.016h0V10.612h0V10.6l-0.008-.008h0V10.571h0V10.555h0V10.541h0V10.533h0V10.516h0V10.5h0V3.664A0.562,0.562,0,0,1,10.5,3.1a0.569,0.569,0,0,1,.573.565V9.927H15.85Zm1.267-6.045A9.349,9.349,0,1,0,19.862,10.5a9.332,9.332,0,0,0-2.745-6.618h0Z"/>
</svg>
