<svg xmlns="http://www.w3.org/2000/svg" width="34" height="34" viewBox="0 0 34 34">
  <defs>
    <style>
      .cls-1 {
        fill: #ccd500;
        fill-rule: evenodd;
      }
    </style>
  </defs>
  <path id="Forma_1" data-name="Forma 1" class="cls-1" d="M22.311,18.062H11.688a1.062,1.062,0,1,0,0,2.124H22.311A1.062,1.062,0,1,0,22.311,18.062Zm2.125-6.374H9.563a1.062,1.062,0,1,0,0,2.124H24.436A1.062,1.062,0,1,0,24.436,11.688ZM17,0C7.613,0,0,6.661,0,14.875a14.235,14.235,0,0,0,6.374,11.6V34l7.446-4.518A19.518,19.518,0,0,0,17,29.747c9.388,0,17-6.659,17-14.872S26.387,0,17,0Zm0,27.62a17.162,17.162,0,0,1-3.591-.39l-5,3.007,0.067-4.927A12.317,12.317,0,0,1,2.127,14.875C2.127,7.835,8.786,2.127,17,2.127S31.872,7.835,31.872,14.875,25.213,27.623,17,27.623Z"/>
</svg>
