<svg xmlns="http://www.w3.org/2000/svg" width="26" height="31" viewBox="0 0 26 31">
  <defs>
    <style>
      .cls-1 {
        fill: #0e7077;
        fill-rule: evenodd;
      }
    </style>
  </defs>
  <path class="cls-1" d="M25.694,27.527a0.859,0.859,0,0,1-.329.4C25.175,28.053,20.624,31,13.01,31S0.844,28.06.654,27.932a0.823,0.823,0,0,1-.329-0.4A9.981,9.981,0,0,1,0,24.619V24.6a1.3,1.3,0,0,0,.006-0.161c0.038-1.265.12-4.237,2.867-5.193a0.6,0.6,0,0,1,.063-0.019A17.974,17.974,0,0,0,8.193,16.8a0.846,0.846,0,0,1,1.19.211,0.874,0.874,0,0,1-.209,1.207A19.771,19.771,0,0,1,3.395,20.9c-1.475.533-1.639,2.131-1.684,3.6,0,0.058-.006.109-0.006,0.161a11.192,11.192,0,0,0,.133,1.984A23.169,23.169,0,0,0,13,29.273a23.039,23.039,0,0,0,11.159-2.632,11.813,11.813,0,0,0,.133-1.983,1.3,1.3,0,0,1-.006-0.161c-0.044-1.463-.209-3.062-1.684-3.595a19.606,19.606,0,0,1-5.779-2.677,0.874,0.874,0,0,1-.209-1.207,0.847,0.847,0,0,1,1.19-.212,18.145,18.145,0,0,0,5.254,2.427l0.063,0.019c2.747,0.95,2.829,3.922,2.867,5.194,0,0.058.006,0.109,0.006,0.161v0.019A10.469,10.469,0,0,1,25.694,27.527ZM13.092,16.7h-0.2a5.781,5.781,0,0,1-4.456-1.958C6,11.959,6.4,7.183,6.446,6.728,6.6,3.28,8.224,1.643,9.554.88A6.969,6.969,0,0,1,12.959,0h0.108A6.958,6.958,0,0,1,16.472.9c1.316,0.764,2.912,2.4,3.07,5.823,0.044,0.456.449,5.231-1.987,8.018A5.8,5.8,0,0,1,13.092,16.7Zm4.754-9.815a0.128,0.128,0,0,1-.006-0.052c-0.2-4.352-3.1-5.058-4.81-5.1H12.953c-1.38,0-4.6.494-4.811,5.1,0,0.013-.006.032-0.006,0.052-0.006.038-.437,4.423,1.57,6.708a4.107,4.107,0,0,0,3.253,1.374h0.063a4.121,4.121,0,0,0,3.26-1.374C18.295,11.3,17.852,6.933,17.845,6.888Z"/>
</svg>
