<svg xmlns="http://www.w3.org/2000/svg" width="26" height="23" viewBox="0 0 26 23">
  <defs>
    <style>
      .cls-1 {
        fill: #fff;
        fill-rule: evenodd;
      }
    </style>
  </defs>
  <path id="Forma_1" data-name="Forma 1" class="cls-1" d="M150.514,421.394l-2.728-.015-2.615-3.971a0.859,0.859,0,0,0-.714-0.408h-7.043a0.858,0.858,0,0,0-.7.393l-2.7,3.986-2.528.015A3.532,3.532,0,0,0,128,424.943v11.478A3.558,3.558,0,0,0,131.486,440h19.028A3.557,3.557,0,0,0,154,436.421V424.943A3.532,3.532,0,0,0,150.514,421.394Zm1.772,15.027a1.822,1.822,0,0,1-1.772,1.833H131.486a1.822,1.822,0,0,1-1.772-1.833V424.943a1.8,1.8,0,0,1,1.772-1.8h2.986a0.859,0.859,0,0,0,.7-0.393l2.7-3.986H144l2.6,3.957a0.878,0.878,0,0,0,.7.393l3.2,0.029a1.8,1.8,0,0,1,1.771,1.8v11.478h0.015Zm-11.214-12.933a6.184,6.184,0,1,0,6.071,6.183A6.132,6.132,0,0,0,141.072,423.488Zm0,10.62a4.438,4.438,0,1,1,4.357-4.437A4.406,4.406,0,0,1,141.072,434.108Zm8.128-8.394a0.335,0.335,0,1,1-.329.335A0.332,0.332,0,0,1,149.2,425.714Zm0-.873a1.208,1.208,0,1,0,1.186,1.208A1.194,1.194,0,0,0,149.2,424.841Zm0,1.746a0.532,0.532,0,0,1-.528-0.538,0.529,0.529,0,1,1,1.057,0A0.532,0.532,0,0,1,149.2,426.587Z" transform="translate(-128 -417)"/>
</svg>
