<svg xmlns="http://www.w3.org/2000/svg" width="265.969" height="103.969" viewBox="0 0 265.969 103.969">
  <defs>
    <style>
      .cls-1 {
        fill: #fff;
        fill-rule: evenodd;
      }
    </style>
  </defs>
  <path id="Rounded_Rectangle_1" data-name="Rounded Rectangle 1" class="cls-1" d="M1257.15,356.919l-0.34-.058-1.5-3.463-0.35-.058c-5.42.471-6.52,8.709-8.93,17.746a28.617,28.617,0,0,1,7.48-.143s1.38,0.18,2.17.341,0.92,1.475.37,1.394-2.63-.328-2.63-0.328a24.733,24.733,0,0,0-7.89.527c-0.16.561-.32,1.122-0.49,1.683-3.2,10.289-10.86,22.689-16.64,21.718q-9.18-2.553-8.79-4.923c1.23-7.329,5.76-11.929,17.43-18.375a77.311,77.311,0,0,0,3.48-12.679c-1.19.787-15.72,12.88-18.89,15.634a80.728,80.728,0,0,1-8.79,10.817q-5.415,4.072-8.53,3.779a9.641,9.641,0,0,1-4.19-2.549l-0.2,1.489-0.71.365q-5.385-3.44-5.41-9.046,1.56-11.522,9.36-24.9,7.785-13.374,12.68-19.333,4.875-5.959,6.31-5.831,2.385,0.789,5.44,6.413a92.1,92.1,0,0,0-10.37,11.045,116.5,116.5,0,0,0-9.11,14.779,56.632,56.632,0,0,1,5.69-5.093q4.74-3.5,8.51-3.124,1.575,0.414,3.21,3.966a11.985,11.985,0,0,1,1.34,6.084,31.54,31.54,0,0,1-3.04,7.548c5.57-4.771,15.66-13.245,17.36-14.611a9.964,9.964,0,0,1,1.54-3.012c3.96-5.282,6.78-5.344,10-4.8,4.16,0.7,5.5,2.024,6.28,4.454A3.637,3.637,0,0,1,1257.15,356.919Zm-35.36,33.791a1.631,1.631,0,0,0,1.05,1.9c4.04,0.678,7.09-2.843,12.97-15.137l0.85-2.236C1228.12,379.337,1222.51,384.871,1221.79,390.71Zm-0.53-34.522c-2.44.238-5.42,1.942-8.91,5.114q-2.775,2.521-6.31,6.324-2.025,4.736-3.38,8.869a56.09,56.09,0,0,0-2.1,9.239,0.989,0.989,0,0,0,.31.109q3.585,0.227,11.17-9.683,9.165-13.319,9.97-18.221A3.119,3.119,0,0,0,1221.26,356.188Zm-26.24,38.127a3.643,3.643,0,0,0,1.03.267v0.012s1.04,0.117.98,0.443c-0.06.3-.65,0.494-1.82,0.436-7.55-1.062-10.68-9.125-10.94-16.883-0.21-6.347.54-15.979,0.54-15.979-0.85.311-3.24,4.432-6.12,10.11-3.14,6.172-6.54,14.644-8.37,14.543q-8.415-1.986-8.66-5.194c1.4-5.453,4.65-15.05,8.12-25.023l-0.33-.008c-6.58,8.916-9.02,14.073-20.07,34.912-0.95,1.456-1.88,2.173-2.8,2.149q-7.875-2.43-7.83-4.389,1.8-6.422,10.18-28.029l-0.26-.006L1140.52,374l-0.01-.008c-5.37,8.012-9.62,12.995-11.43,13.114-2.56.168-5.74-3.541-6.16-6.338a19.6,19.6,0,0,1,.19-6.363q-7.695,14.19-12.09,14.8-7.08-1.5-7.38-6.192a20.691,20.691,0,0,1,.11-3.385c-3.67,6.6-6.42,10.065-8.23,10.345a15.107,15.107,0,0,1-7.64-2.749,9.759,9.759,0,0,1-4.61-6.655,33.471,33.471,0,0,1-.19-3.51c-1.97.138-3.93,0.308-5.83,0.519a31.747,31.747,0,0,1-7.11,14.761q-5.415,6.052-16.9,6.649a17.6,17.6,0,0,1-3.88-.322c-0.91,4.948-1.18,8.584-1.18,8.584-0.61,1.015-1.51,2.388-2.27-.661a48.954,48.954,0,0,1-1.15-9.343,19.374,19.374,0,0,1-2.94-1.6c-3.26-2.183-5.96-3.913-9.48-11q-0.4-.947-0.72-1.91a70.207,70.207,0,0,0-9,3.244c-1.31-.129-3.13-0.386-0.5-2.356a50.759,50.759,0,0,1,8.57-4.95,25.285,25.285,0,0,1,9.23-22.732,16.71,16.71,0,0,1,5.28,1.173,21.729,21.729,0,0,1,13.7-5.741c2.84-3.565,4.94-5.941,4.94-5.941,0.73-.924,2.35-1.8,2.27.661a60.064,60.064,0,0,0-2.35,5.621,18.332,18.332,0,0,1,12.2,8.473,23.25,23.25,0,0,1,2.11,11.14c1.88,0.368,3.64.744,5.24,1.1a59.014,59.014,0,0,1,3.15-13.136c1.26-3.531,2.67-6.809,4.05-9.777,4.94-11.1,9.28-18.416,14.13-21.89,2.55-1.821,6.51-1.42,10.01,1.25,1.36,2.137-.06,7.02-3.02,11.988l-0.01-.007c-1.08,1.868-2.23,3.52-3.68,5.663-1.95,2.885-10.51,12.769-14.47,17.216a63.253,63.253,0,0,0-2,10.68l0.02,0.006c1.28,0.273,2.97,1.395.5,2.357-0.24,0-.49,0-0.74,0-0.08,1.54-.11,3.058-0.06,4.547a8.848,8.848,0,0,0,1.98,4.9c1.03,1.113,2,1.608,2.9,1.484,1.13-.154,4.04-4.6,8.69-13.248,1.71-6.279,5.31-14.083,10.88-23.478a1.538,1.538,0,0,1,.83-0.317q5.85,2.629,5.98,4.583a161.075,161.075,0,0,0-9.81,18.714q-2.745,7.054-2.39,12.335a0.94,0.94,0,0,0,1.23.835q3.825-2.28,9.84-13.086c6.37-14.471,8.79-20.047,10.53-22.694a2.673,2.673,0,0,1,1.72-.7q5.73,1.849,5.82,3.152c0.03,0.566-.35,1.555-4.41,8.936s-6.77,15.022-6.41,20.585c0.08,1.174.55,1.941,1.28,1.684,1.44-.5,5.84-6.558,9.67-12.09l-0.01-.01c7.32-10.862,8.57-13.68,12.98-22.527a11.363,11.363,0,0,1,5.77-1.592c1.26,0.033,2.15.8,2.68,2.292-1,3.285-3.11,9.051-9.84,27.433a60.313,60.313,0,0,0-2.82,10.578c3.2-6.048,6.34-11.35,10.87-19.657s9.45-15.531,12.08-18.251q6.285,1.537,6.22,4.019c-4.87,16.69-8.13,27.7-8.17,29.269-0.01.349,0.25,0.3,0.47,0.306,1.89-1.082,11.42-23.2,15.61-29.809,1.46-2.312,3.32-3.557,3.88-3.542q5.715,0.869,5.65,3.154C1191.56,375.676,1186.75,389.985,1195.02,394.315Zm-153.11-5.833a19.286,19.286,0,0,0,2.72,4.024c-0.04-4.169.08-8.463,0.29-12.1a48.324,48.324,0,0,0-5.68.607A29.732,29.732,0,0,0,1041.91,388.482Zm2.76-28.556c-4.05,3.767-6.04,9.322-6.05,15.239,2.39-.994,4.79-1.934,7.03-2.769,0.02-.163.05-0.36,0.08-0.492,2.43-5.91,7.28-12.875,11.34-18.177C1053.98,353.886,1050.32,354.668,1044.67,359.926Zm13.35,20.8c-1.63.286-2.34,0.472-3.14,0.628a59.14,59.14,0,0,0-4.98,14.62,12.625,12.625,0,0,0,3.31.441c2.65-.1,5.93-2.121,8.98-5.98a28.989,28.989,0,0,0,5.39-11.513C1061.92,379.85,1058.02,380.727,1058.02,380.727Zm10.01-19.581c-0.82-2.285-2.57-5.228-5.21-6.646a93.722,93.722,0,0,0-3.29,14.436,91.436,91.436,0,0,1,9.38.861A22.9,22.9,0,0,0,1068.03,361.146Zm44.17-24.587h0.01c1.24-2.755,1.64-4.97,1.11-6.064a0.881,0.881,0,0,0-1.36-.334,26.713,26.713,0,0,0-5.42,5.435h0c-0.07.45-2.11,2.812-5.03,8.467a106.415,106.415,0,0,0-6.78,15.636C1102.4,351.557,1109.1,342.934,1112.2,336.559Zm-100.95,34.93c14.17,21.653,23.56,33.868,29.96,39.443s11.7,7.884,15.9,6.929q6.03-1.366,13.45-20.993l1.24,0.54c-0.96,7.643-3.87,14.394-9.55,21.365-2.32,2.956-8.68,5.521-10.07,5.964q-5.88,1.336-14.17-4.369t-17.99-18.978q-9.705-13.274-14.12-19.971-2.07,7.35-3.45,24.032l-0.78.177q-8.02-3.187-8.517-5.392-0.69-3.057,2.043-14.07,10.146-49.473,9.644-51.751a5.213,5.213,0,0,0-1.29-2.4,0.365,0.365,0,0,1,.27-0.436q9.015-.325,10.21,4.935c0.3,1.327-1.04,9.786-4.52,27.82,11.23-9.982,26.35-21.945,54.68-39.506a26.648,26.648,0,0,0,4.51-3.671c0.84-.933,2.2,3.983.69,4.915C1060.47,331.569,1032.25,349.689,1011.25,371.489Z" transform="translate(-993.031 -321.031)"/>
</svg>
