<svg xmlns="http://www.w3.org/2000/svg" width="180" height="70" viewBox="0 0 180 70">
  <defs>
    <style>
      .cls-1 {
        fill: #fff;
        fill-rule: evenodd;
      }
    </style>
  </defs>
  <path id="Rounded_Rectangle_1" data-name="Rounded Rectangle 1" class="cls-1" d="M178.75,24.156l-0.234-.039L177.5,21.785l-0.234-.039c-3.668.317-4.413,5.864-6.046,11.95a19.449,19.449,0,0,1,5.061-.1s0.936,0.121,1.471.23,0.619,0.993.251,0.938-1.78-.22-1.78-0.22a16.792,16.792,0,0,0-5.338.354q-0.162.567-.337,1.133c-2.166,6.929-7.346,15.279-11.261,14.625q-6.211-1.719-5.943-3.315c0.827-4.935,3.9-8.033,11.791-12.373a51.911,51.911,0,0,0,2.354-8.538c-0.8.53-10.632,8.673-12.783,10.527a54.22,54.22,0,0,1-5.945,7.284q-3.666,2.742-5.773,2.545a6.521,6.521,0,0,1-2.834-1.717l-0.137,1-0.479.246a7.019,7.019,0,0,1-3.661-6.091q1.059-7.759,6.333-16.765a107.222,107.222,0,0,1,8.579-13.019q3.3-4.013,4.271-3.926,1.617,0.532,3.68,4.318a62.469,62.469,0,0,0-7.017,7.437,78.135,78.135,0,0,0-6.16,9.952,38.186,38.186,0,0,1,3.847-3.429q3.213-2.36,5.757-2.1,1.073,0.279,2.171,2.671a8.008,8.008,0,0,1,.909,4.1,21.1,21.1,0,0,1-2.056,5.083c3.769-3.213,10.6-8.919,11.748-9.838a6.642,6.642,0,0,1,1.04-2.028c2.682-3.557,4.587-3.6,6.772-3.234,2.81,0.469,3.718,1.363,4.246,3A2.446,2.446,0,0,1,178.75,24.156ZM154.824,46.91a1.088,1.088,0,0,0,.708,1.28c2.731,0.456,4.8-1.915,8.778-10.193l0.573-1.506C159.1,39.251,155.306,42.978,154.824,46.91ZM154.46,23.664q-2.48.24-6.028,3.443-1.878,1.7-4.272,4.259-1.368,3.188-2.282,5.972a37.87,37.87,0,0,0-1.426,6.221,0.715,0.715,0,0,0,.212.073q2.424,0.152,7.56-6.52,6.2-8.968,6.742-12.269A2.075,2.075,0,0,0,154.46,23.664ZM136.706,49.337a2.471,2.471,0,0,0,.693.18v0.008s0.7,0.078.663,0.3c-0.038.2-.435,0.333-1.231,0.294-5.109-.715-7.228-6.145-7.4-11.369-0.141-4.274.366-10.76,0.366-10.76-0.576.209-2.192,2.985-4.144,6.808-2.121,4.156-4.426,9.861-5.665,9.793q-5.7-1.337-5.859-3.5c0.948-3.672,3.144-10.134,5.5-16.849l-0.22-.006c-4.452,6-6.107,9.477-13.586,23.509a2.5,2.5,0,0,1-1.89,1.447q-5.335-1.636-5.3-2.955,1.216-4.324,6.887-18.874l-0.176,0-5.515,8.3,0-.006c-3.634,5.4-6.511,8.75-7.739,8.831-1.73.114-3.882-2.384-4.166-4.268a13.063,13.063,0,0,1,.128-4.285q-5.2,9.555-8.177,9.969-4.792-1.008-5-4.169a13.612,13.612,0,0,1,.079-2.28c-2.488,4.443-4.349,6.778-5.573,6.966a10.227,10.227,0,0,1-5.166-1.851,6.581,6.581,0,0,1-3.123-4.481,22.522,22.522,0,0,1-.129-2.364c-1.331.093-2.657,0.208-3.945,0.35a21.35,21.35,0,0,1-4.81,9.94q-3.668,4.076-11.438,4.477a12.044,12.044,0,0,1-2.624-.217c-0.619,3.332-.8,5.78-0.8,5.78-0.41.684-1.025,1.608-1.535-.445a32.338,32.338,0,0,1-.776-6.291,13.008,13.008,0,0,1-1.994-1.076c-2.2-1.47-4.031-2.635-6.411-7.4q-0.274-.637-0.488-1.286a47.528,47.528,0,0,0-6.094,2.185c-0.885-.087-2.114-0.26-0.34-1.587a34.588,34.588,0,0,1,5.806-3.325,16.964,16.964,0,0,1,6.244-15.315,11.337,11.337,0,0,1,3.568.79A14.761,14.761,0,0,1,44.6,20.431c1.918-2.4,3.345-4,3.345-4,0.488-.622,1.588-1.215,1.535.445a39.921,39.921,0,0,0-1.592,3.785,12.384,12.384,0,0,1,8.253,5.7,15.581,15.581,0,0,1,1.433,7.5c1.266,0.248,2.462.5,3.546,0.741a39.1,39.1,0,0,1,2.129-8.846c0.849-2.378,1.8-4.585,2.739-6.584,3.343-7.472,6.28-12.4,9.565-14.74,1.722-1.226,4.4-.956,6.771.842,0.92,1.439-.044,4.727-2.042,8.072l-0.006,0c-0.73,1.257-1.514,2.37-2.494,3.813-1.319,1.942-7.111,8.6-9.787,11.593a42.652,42.652,0,0,0-1.359,7.191l0.017,0c0.865,0.184,2.011.939,0.34,1.587-0.165,0-.336,0-0.5,0-0.058,1.037-.078,2.059-0.042,3.062a5.921,5.921,0,0,0,1.34,3.3,2.374,2.374,0,0,0,1.959,1c0.765-.1,2.735-3.1,5.885-8.921,1.152-4.228,3.587-9.483,7.36-15.809a1.024,1.024,0,0,1,.56-0.213q3.958,1.77,4.045,3.086a108.652,108.652,0,0,0-6.636,12.6,19.743,19.743,0,0,0-1.618,8.306,0.635,0.635,0,0,0,.832.562q2.593-1.535,6.664-8.812c4.306-9.745,5.945-13.5,7.124-15.281a1.816,1.816,0,0,1,1.161-.473Q99,21.194,99.059,22.071c0.025,0.381-.235,1.047-2.985,6.017S91.493,38.2,91.738,41.95c0.052,0.791.37,1.307,0.87,1.134,0.973-.338,3.951-4.416,6.543-8.141l-0.006-.006a99.334,99.334,0,0,0,8.78-15.169,7.733,7.733,0,0,1,3.907-1.072,1.955,1.955,0,0,1,1.811,1.543c-0.676,2.212-2.1,6.095-6.66,18.473a40.939,40.939,0,0,0-1.906,7.123c2.166-4.073,4.29-7.643,7.359-13.237s6.393-10.458,8.175-12.29q4.248,1.035,4.2,2.706c-3.293,11.239-5.5,18.654-5.526,19.709-0.007.235,0.166,0.2,0.313,0.207,1.283-.729,7.731-15.622,10.564-20.073a5.2,5.2,0,0,1,2.629-2.386q3.863,0.586,3.823,2.124C134.362,36.787,131.11,46.422,136.706,49.337ZM33.1,45.41a13.113,13.113,0,0,0,1.839,2.71c-0.029-2.808.057-5.7,0.194-8.146a33,33,0,0,0-3.845.409A19.87,19.87,0,0,0,33.1,45.41Zm1.866-19.229a13.811,13.811,0,0,0-4.1,10.263c1.624-.67,3.246-1.3,4.758-1.866,0.018-.11.037-0.242,0.055-0.331,1.647-3.98,4.925-8.67,7.678-12.24C41.262,22.114,38.789,22.64,34.965,26.181ZM44,40.187c-1.1.193-1.58,0.318-2.123,0.423a39.451,39.451,0,0,0-3.37,9.845,8.577,8.577,0,0,0,2.238.3c1.794-.066,4.015-1.428,6.077-4.027a19.4,19.4,0,0,0,3.647-7.753C46.635,39.6,44,40.187,44,40.187ZM50.77,27a8.374,8.374,0,0,0-3.525-4.475,63.285,63.285,0,0,0-2.224,9.721,62.075,62.075,0,0,1,6.346.58A15.2,15.2,0,0,0,50.77,27ZM80.662,10.446h0c0.843-1.855,1.11-3.347.749-4.083A0.594,0.594,0,0,0,80.5,6.138,18.121,18.121,0,0,0,76.833,9.8h0c-0.048.3-1.43,1.893-3.4,5.7a71.107,71.107,0,0,0-4.588,10.529C74.032,20.545,78.564,14.738,80.662,10.446ZM12.347,33.967c9.591,14.58,15.944,22.806,20.274,26.56s7.918,5.309,10.765,4.666q4.077-.92,9.1-14.136l0.839,0.364a27.279,27.279,0,0,1-6.46,14.386c-1.574,1.99-5.875,3.718-6.815,4.016q-3.983.9-9.592-2.942T18.282,54.1q-6.565-8.937-9.553-13.448Q7.328,45.6,6.4,56.836l-0.528.12Q0.439,54.809.1,53.324q-0.467-2.058,1.382-9.474Q8.356,10.536,8.009,9a3.436,3.436,0,0,0-.871-1.615,0.25,0.25,0,0,1,.186-0.294q6.1-.219,6.905,3.323c0.2,0.894-.7,6.59-3.057,18.734,7.6-6.721,17.834-14.777,37-26.6A18.268,18.268,0,0,0,51.229.075c0.567-.628,1.484,2.682.462,3.31C45.657,7.086,26.563,19.287,12.347,33.967Z"/>
</svg>
