<svg xmlns="http://www.w3.org/2000/svg" width="45" height="10" viewBox="0 0 45 10">
  <metadata><?xpacket begin="﻿" id="W5M0MpCehiHzreSzNTczkc9d"?>
<x:xmpmeta xmlns:x="adobe:ns:meta/" x:xmptk="Adobe XMP Core 5.6-c138 79.159824, 2016/09/14-01:09:01        ">
   <rdf:RDF xmlns:rdf="http://www.w3.org/1999/02/22-rdf-syntax-ns#">
      <rdf:Description rdf:about=""/>
   </rdf:RDF>
</x:xmpmeta>
                                                                                                    
                                                                                                    
                                                                                                    
                                                                                                    
                                                                                                    
                                                                                                    
                                                                                                    
                                                                                                    
                                                                                                    
                                                                                                    
                                                                                                    
                                                                                                    
                                                                                                    
                                                                                                    
                                                                                                    
                                                                                                    
                                                                                                    
                                                                                                    
                                                                                                    
                                                                                                    
                           
<?xpacket end="w"?></metadata>
<defs>
    <style>
      .cls-1 {
        fill-rule: evenodd;
        fill: #0e7077;
      }
    </style>
  </defs>
  <path class="cls-1" d="M0,0H5V5H0V0ZM0,5H5v5H0V5ZM5,5h5v5H5V5Zm5-5h5V5H10V0Zm0,5h5v5H10V5Zm5,0h5v5H15V5Zm0-5h5V5H15V0Zm5,0h5V5H20V0Zm5,0h5V5H25V0Zm0,5h5v5H25V5Zm5,0h5v5H30V5Zm0-5h5V5H30V0Zm5,0h5V5H35V0Zm5,5h5v5H40V5Z"/>
</svg>
